<?xml version="1.0" encoding="utf-8"?>
<!-- Generator: Adobe Illustrator 16.0.0, SVG Export Plug-In . SVG Version: 6.00 Build 0)  -->
<!DOCTYPE svg PUBLIC "-//W3C//DTD SVG 1.1//EN" "http://www.w3.org/Graphics/SVG/1.1/DTD/svg11.dtd">
<svg version="1.1" id="Layer_1" xmlns="http://www.w3.org/2000/svg" xmlns:xlink="http://www.w3.org/1999/xlink" x="0px" y="0px"
	 width="250px" height="350px" viewBox="0 0 250 350" enable-background="new 0 0 250 350" xml:space="preserve">
<g>
	<path fill="#FFFFFF" d="M105.476,171.594c-13.116,23.22-10.147,39.472,15.685,49.426c-0.241-6.526-2.307-18.813-7.393-31.876
		c6.047,8.802,9.118,23.121,10.983,31.094C140.032,198.173,130.996,183.705,105.476,171.594z"/>
	<path fill="#FFFFFF" d="M164.726,138.295c-0.051-1.145-1.076-2.048-2.326-2.048h-16.021V125.77c0-7.939-7.046-14.4-15.708-14.4
		c-7.121,0-13.151,4.365-15.07,10.331c-5.751,1.763-9.817,6.027-9.817,10.997v3.55h-6.846c-0.707,0-1.375,0.295-1.817,0.802
		c-0.418,0.472-0.584,1.087-0.479,1.685c-0.051,0.285-0.044,0.581,0.034,0.87l1.07,3.91l-14.336,6.254
		c-0.041,0.021-0.075,0.048-0.115,0.064c-0.075,0.038-0.149,0.078-0.224,0.126c-0.055,0.037-0.109,0.078-0.163,0.119
		c-0.058,0.048-0.116,0.092-0.17,0.146c-0.051,0.047-0.095,0.098-0.143,0.149c-0.048,0.054-0.092,0.108-0.136,0.17
		c-0.034,0.054-0.068,0.108-0.102,0.166c-0.038,0.064-0.072,0.126-0.099,0.194c-0.027,0.061-0.051,0.122-0.071,0.184
		c-0.021,0.068-0.041,0.136-0.055,0.204c-0.017,0.068-0.027,0.139-0.034,0.21c-0.003,0.038-0.014,0.072-0.017,0.112l-3.822,84.792
		c-0.027,0.581,0.207,1.148,0.646,1.566c0.441,0.422,1.05,0.659,1.685,0.659h71.096c0.003,0,0.007,0,0.007,0
		c0.143,0,0.281-0.017,0.421-0.037c0.034-0.007,0.068-0.014,0.102-0.021c0.126-0.027,0.252-0.062,0.374-0.105
		c0.007-0.007,0.018-0.007,0.027-0.01c0.126-0.052,0.244-0.112,0.363-0.184c0.027-0.018,0.055-0.034,0.082-0.055
		c0.102-0.068,0.2-0.143,0.288-0.228c0.011-0.007,0.021-0.01,0.027-0.021c0.004,0,0.004-0.003,0.007-0.007
		c0.096-0.092,0.18-0.193,0.258-0.302c0.021-0.031,0.038-0.059,0.059-0.089c0.026-0.041,0.058-0.078,0.081-0.126l4.963-9.098
		l8.374-3.199c0.904-0.344,1.475-1.166,1.434-2.059L164.726,138.295z M119.636,125.212c0.604-0.071,1.226-0.108,1.858-0.108
		c6.091,0,11.047,3.407,11.047,7.592v3.55h-12.922V125.77C119.619,125.583,119.625,125.396,119.636,125.212z M130.67,115.643
		c6.091,0,11.047,4.542,11.047,10.127v10.477h-4.511v-3.55c0-6.543-7.05-11.866-15.712-11.866c-0.156,0-0.316,0.003-0.472,0.01
		C122.914,117.742,126.528,115.643,130.67,115.643z M110.443,132.696c0-2.507,1.78-4.732,4.515-6.115v9.665h-4.515V132.696z
		 M83.018,234.356l3.628-80.52h58.988l3.632,80.52H83.018z M156.148,224.712c-0.514,0.197-0.938,0.557-1.186,1.016l-1.312,2.401
		l-3.451-76.517c0-0.017-0.004-0.034-0.007-0.051c-0.007-0.116-0.024-0.228-0.052-0.34c-0.003-0.01-0.003-0.024-0.007-0.034
		c-0.03-0.115-0.074-0.228-0.129-0.336c-0.014-0.031-0.03-0.065-0.047-0.092c-0.018-0.034-0.031-0.068-0.048-0.099l-2.511-4.138
		l12.831-4.413l3.591,79.667L156.148,224.712z"/>
</g>
</svg>
