<?xml version="1.0" encoding="utf-8"?>
<!-- Generator: Adobe Illustrator 16.0.0, SVG Export Plug-In . SVG Version: 6.00 Build 0)  -->
<!DOCTYPE svg PUBLIC "-//W3C//DTD SVG 1.1//EN" "http://www.w3.org/Graphics/SVG/1.1/DTD/svg11.dtd">
<svg version="1.1" id="Layer_1" xmlns="http://www.w3.org/2000/svg" xmlns:xlink="http://www.w3.org/1999/xlink" x="0px" y="0px"
	 width="250px" height="350px" viewBox="0 0 250 350" enable-background="new 0 0 250 350" xml:space="preserve">
<g>
	<path fill="#FFFFFF" d="M125.917,225.16c0.896,0.012,1.706-0.347,2.308-0.933c0.591-0.577,0.956-1.386,0.966-2.285l0.382-38.329
		c0.028-1.799-1.42-3.271-3.218-3.285c-1.792-0.017-3.261,1.428-3.271,3.219l-0.393,38.336
		C122.685,223.679,124.119,225.146,125.917,225.16z"/>
	<path fill="#FFFFFF" d="M142.287,164.223c0.014-0.188,0.06-0.361,0.06-0.552c-0.07-1.871-1.361-4.451-4.399-5.52l0.417-41.291
		c0.014-0.517-0.128-0.989-0.337-1.424c-0.292-0.993-0.774-1.902-1.534-2.676c-0.861-0.882-2.424-1.952-4.993-1.982
		c-4.426-0.062-10.464,3.128-15.758,8.304c-5.284,5.18-8.559,11.155-8.589,15.589c0,0.25,0.094,0.444,0.107,0.67
		c-0.014,0.121,0.024,0.215,0.024,0.336l-0.038,21.897c-3.399-0.035-3.323,6.69-3.323,6.69l-1.017,63.802
		c-0.052,6.041,8.641,10.725,19.001,10.825c7.371,0.08,14.269-1.934,17.547-5.148c1.839-1.791,2.235-3.624,2.249-4.837l0.652-64.322
		C142.356,164.458,142.298,164.348,142.287,164.223z M120.262,123.72c5.721-5.583,10.7-6.843,11.526-6.489
		c0.445,0.94-0.92,5.905-6.621,11.488c-5.711,5.6-10.693,6.854-11.505,6.496C113.221,134.274,114.568,129.303,120.262,123.72z
		 M113.53,141.638c4.84,0.253,11.179-3.368,16.186-8.28c0.698-0.688,1.368-1.406,2.014-2.135l-0.351,34.631
		c-2.181,0.604-5.094,1.069-8.743,1.038c-4.09-0.045-7.218-0.767-9.349-1.535L113.53,141.638z M135.229,228.701
		c-0.481,1.175-5.526,3.785-13.258,3.694c-7.718-0.069-12.367-3.604-12.568-4.777l0.556-56.678
		c3.517,1.562,8.058,2.399,12.599,2.455c4.677,0.035,9.496-0.68,13.231-2.222L135.229,228.701z"/>
</g>
</svg>
