<?xml version="1.0" encoding="utf-8"?>
<!-- Generator: Adobe Illustrator 16.0.0, SVG Export Plug-In . SVG Version: 6.00 Build 0)  -->
<!DOCTYPE svg PUBLIC "-//W3C//DTD SVG 1.1//EN" "http://www.w3.org/Graphics/SVG/1.1/DTD/svg11.dtd">
<svg version="1.1" id="Layer_1" xmlns="http://www.w3.org/2000/svg" xmlns:xlink="http://www.w3.org/1999/xlink" x="0px" y="0px"
	 width="210px" height="180px" viewBox="0 0 210 180" enable-background="new 0 0 210 180" xml:space="preserve">
<g>
	<path fill="#FFFFFF" d="M106.717,118.465c0.553,0.005,1.051-0.215,1.423-0.576c0.363-0.354,0.589-0.853,0.594-1.406l0.234-23.6
		c0.019-1.108-0.872-2.014-1.98-2.022c-1.103-0.012-2.006,0.879-2.013,1.982l-0.241,23.603
		C104.728,117.55,105.612,118.454,106.717,118.465z"/>
	<path fill="#FFFFFF" d="M116.796,80.945c0.01-0.116,0.038-0.224,0.038-0.341c-0.045-1.152-0.839-2.74-2.709-3.398l0.257-25.423
		c0.01-0.319-0.079-0.609-0.208-0.877c-0.18-0.611-0.477-1.169-0.943-1.647c-0.532-0.543-1.493-1.201-3.075-1.221
		c-2.725-0.038-6.441,1.927-9.702,5.115c-3.254,3.188-5.27,6.867-5.29,9.598c0,0.153,0.058,0.272,0.066,0.413
		c-0.009,0.073,0.016,0.133,0.016,0.208l-0.024,13.481c-2.091-0.021-2.044,4.118-2.044,4.118l-0.627,39.284
		c-0.032,3.72,5.321,6.603,11.7,6.664c4.537,0.05,8.785-1.191,10.804-3.169c1.132-1.104,1.374-2.233,1.385-2.978l0.402-39.604
		C116.841,81.089,116.804,81.021,116.796,80.945z M103.235,56.007c3.524-3.438,6.588-4.213,7.098-3.996
		c0.274,0.581-0.567,3.637-4.077,7.075c-3.517,3.446-6.582,4.217-7.083,3.999C98.9,62.504,99.731,59.445,103.235,56.007z
		 M99.091,67.039c2.979,0.157,6.882-2.073,9.965-5.097c0.431-0.422,0.842-0.866,1.24-1.315l-0.217,21.323
		c-1.343,0.372-3.137,0.658-5.383,0.64c-2.516-0.03-4.444-0.472-5.755-0.946L99.091,67.039z M112.45,120.645
		c-0.297,0.723-3.402,2.328-8.163,2.275c-4.752-0.045-7.614-2.221-7.737-2.942l0.341-34.897c2.167,0.961,4.962,1.479,7.758,1.512
		c2.88,0.021,5.847-0.419,8.147-1.367L112.45,120.645z"/>
</g>
</svg>
