<?xml version="1.0" encoding="utf-8"?>
<!-- Generator: Adobe Illustrator 16.0.0, SVG Export Plug-In . SVG Version: 6.00 Build 0)  -->
<!DOCTYPE svg PUBLIC "-//W3C//DTD SVG 1.1//EN" "http://www.w3.org/Graphics/SVG/1.1/DTD/svg11.dtd">
<svg version="1.1" id="Layer_1" xmlns="http://www.w3.org/2000/svg" xmlns:xlink="http://www.w3.org/1999/xlink" x="0px" y="0px"
	 width="210px" height="180px" viewBox="0 0 210 180" enable-background="new 0 0 210 180" xml:space="preserve">
<g>
	<path fill="#FFFFFF" d="M104.5,41.284c-20.133,0-36.452,16.32-36.452,36.451c0,4.469,0.807,8.75,2.275,12.708
		c0,0,5.572,9.995,7.021,11.61l27.117,36.3l26.766-35.832c1.762-1.898,7.446-12.078,7.446-12.078
		c1.473-3.958,2.277-8.238,2.277-12.708C140.951,57.604,124.631,41.284,104.5,41.284z M104.397,96.482
		c-10.813,0-19.582-8.765-19.582-19.58c0-10.813,8.768-19.58,19.582-19.58c10.814,0,19.579,8.767,19.579,19.58
		C123.976,87.717,115.211,96.482,104.397,96.482z"/>
</g>
</svg>
