<?xml version="1.0" encoding="utf-8"?>
<!-- Generator: Adobe Illustrator 16.0.0, SVG Export Plug-In . SVG Version: 6.00 Build 0)  -->
<!DOCTYPE svg PUBLIC "-//W3C//DTD SVG 1.1//EN" "http://www.w3.org/Graphics/SVG/1.1/DTD/svg11.dtd">
<svg version="1.1" id="Layer_1" xmlns="http://www.w3.org/2000/svg" xmlns:xlink="http://www.w3.org/1999/xlink" x="0px" y="0px"
	 width="210px" height="180px" viewBox="0 0 210 180" enable-background="new 0 0 210 180" xml:space="preserve">
<path fill="#FFFFFF" d="M138.339,41.683H70.837c-2.597,0-4.84,1.562-5.853,3.791c-0.367,0.805-0.575,1.702-0.575,2.638v83.574
	c0,3.534,2.892,6.428,6.428,6.428h67.501c0.939,0,1.833-0.21,2.64-0.576c2.227-1.014,3.789-3.258,3.789-5.852V48.111
	C144.768,44.577,141.876,41.683,138.339,41.683z M130.726,125.256H78.451c-1.775,0-3.215-1.437-3.215-3.213
	c0-1.774,1.439-3.216,3.215-3.216h52.274c1.775,0,3.215,1.441,3.215,3.216C133.94,123.819,132.501,125.256,130.726,125.256z
	 M130.726,109.185H78.451c-1.775,0-3.215-1.437-3.215-3.214s1.439-3.213,3.215-3.213h52.274c1.775,0,3.215,1.436,3.215,3.213
	S132.501,109.185,130.726,109.185z M130.726,93.112H78.451c-1.775,0-3.215-1.437-3.215-3.214c0-1.775,1.439-3.216,3.215-3.216
	h52.274c1.775,0,3.215,1.441,3.215,3.216C133.94,91.676,132.501,93.112,130.726,93.112z M130.726,77.043H78.451
	c-1.775,0-3.215-1.439-3.215-3.217c0-1.776,1.439-3.213,3.215-3.213h52.274c1.775,0,3.215,1.437,3.215,3.213
	C133.94,75.604,132.501,77.043,130.726,77.043z M130.726,60.97H78.451c-1.775,0-3.215-1.437-3.215-3.213
	c0-1.778,1.439-3.217,3.215-3.217h52.274c1.775,0,3.215,1.439,3.215,3.217C133.94,59.533,132.501,60.97,130.726,60.97z"/>
</svg>
