<?xml version="1.0" encoding="utf-8"?>
<!-- Generator: Adobe Illustrator 16.0.0, SVG Export Plug-In . SVG Version: 6.00 Build 0)  -->
<!DOCTYPE svg PUBLIC "-//W3C//DTD SVG 1.1//EN" "http://www.w3.org/Graphics/SVG/1.1/DTD/svg11.dtd">
<svg version="1.1" id="Layer_1" xmlns="http://www.w3.org/2000/svg" xmlns:xlink="http://www.w3.org/1999/xlink" x="0px" y="0px"
	 width="210px" height="180px" viewBox="0 0 210 180" enable-background="new 0 0 210 180" xml:space="preserve">
<g>
	<path fill="#FFFFFF" stroke="#FFFFFF" stroke-miterlimit="10" d="M105.469,74.764h3.187c0,9.562,3.188,38.254-6.376,57.382H89.53
		C102.28,119.396,105.469,100.268,105.469,74.764z"/>
	<path fill="#FFFFFF" stroke="#FFFFFF" stroke-miterlimit="10" d="M79.446,89.19c2.441-22.316,24.407-12.754,24.407-12.754
		C103.853,57.308,72.123,54.121,79.446,89.19z"/>
	<path fill="#FFFFFF" stroke="#FFFFFF" stroke-miterlimit="10" d="M105.469,76.436c3.699-22.316,38.255-15.941,22.316,15.94
		C130.973,66.874,105.469,76.436,105.469,76.436z"/>
	<path fill="#FFFFFF" stroke="#FFFFFF" stroke-miterlimit="10" d="M108.935,69.308c-9.771-20.4,22.194-35.001,27.422,0.255
		C124.341,46.844,108.935,69.308,108.935,69.308z"/>
	<path fill="#FFFFFF" stroke="#FFFFFF" stroke-miterlimit="10" d="M103.139,71.925c14.984-18.54-14.311-37.438-28.233-3.714
		C92.76,47.727,103.139,71.925,103.139,71.925z"/>
	<path fill="#FFFFFF" stroke="#FFFFFF" stroke-miterlimit="10" d="M105.467,76.185c5.382-13.531,24.483-4.899,10.622,13.005
		C121.636,73.585,105.467,76.185,105.467,76.185z"/>
	<path fill="#FFFFFF" stroke="#FFFFFF" stroke-miterlimit="10" d="M110.724,76.185c-5.382-13.531-24.484-4.899-10.621,13.005
		C94.554,73.585,110.724,76.185,110.724,76.185z"/>
	<rect x="106" y="70" fill="#FFFFFF" stroke="#FFFFFF" stroke-miterlimit="10" width="3" height="7"/>
	<rect x="105.5" y="67.5" fill="#FFFFFF" width="5" height="3"/>
	<rect x="103.5" y="70.5" fill="#FFFFFF" width="5" height="4"/>
	<rect x="103.5" y="74.5" fill="#FFFFFF" width="5" height="3"/>
</g>
</svg>
