<?xml version="1.0" encoding="utf-8"?>
<!-- Generator: Adobe Illustrator 16.0.0, SVG Export Plug-In . SVG Version: 6.00 Build 0)  -->
<!DOCTYPE svg PUBLIC "-//W3C//DTD SVG 1.1//EN" "http://www.w3.org/Graphics/SVG/1.1/DTD/svg11.dtd">
<svg version="1.1" id="Layer_1" xmlns="http://www.w3.org/2000/svg" xmlns:xlink="http://www.w3.org/1999/xlink" x="0px" y="0px"
	 width="210px" height="180px" viewBox="0 0 210 180" enable-background="new 0 0 210 180" xml:space="preserve">
<g>
	<path fill="#FFFFFF" d="M95.179,85.057c-7.48,13.243-5.788,22.512,8.946,28.19c-0.138-3.723-1.316-10.73-4.216-18.181
		c3.449,5.021,5.201,13.187,6.264,17.734C114.889,100.217,109.734,91.965,95.179,85.057z"/>
	<path fill="#FFFFFF" d="M128.973,66.065c-0.029-0.653-0.614-1.169-1.328-1.169h-9.138v-5.975c0-4.528-4.018-8.213-8.958-8.213
		c-4.062,0-7.5,2.49-8.596,5.892c-3.28,1.005-5.599,3.438-5.599,6.272v2.024H91.45c-0.403,0-0.785,0.169-1.037,0.458
		c-0.239,0.269-0.333,0.62-0.273,0.961c-0.029,0.163-0.025,0.332,0.019,0.496l0.61,2.23l-8.177,3.567
		c-0.023,0.012-0.042,0.027-0.065,0.037c-0.043,0.021-0.085,0.045-0.128,0.072c-0.031,0.021-0.062,0.044-0.093,0.068
		c-0.033,0.027-0.066,0.052-0.097,0.083c-0.028,0.027-0.054,0.056-0.081,0.085c-0.027,0.031-0.052,0.062-0.077,0.097
		c-0.02,0.031-0.039,0.062-0.059,0.095c-0.021,0.037-0.041,0.071-0.056,0.11c-0.015,0.035-0.029,0.07-0.041,0.105
		c-0.012,0.039-0.023,0.077-0.031,0.116c-0.01,0.039-0.016,0.08-0.02,0.121c-0.002,0.021-0.008,0.041-0.01,0.063l-2.18,48.361
		c-0.016,0.331,0.118,0.655,0.368,0.894c0.252,0.24,0.599,0.376,0.961,0.376h40.549c0.002,0,0.004,0,0.004,0
		c0.081,0,0.161-0.01,0.24-0.021c0.019-0.004,0.039-0.008,0.059-0.012c0.071-0.015,0.143-0.034,0.213-0.06
		c0.004-0.004,0.01-0.004,0.016-0.006c0.071-0.029,0.139-0.064,0.207-0.104c0.015-0.01,0.031-0.02,0.047-0.031
		c0.058-0.039,0.114-0.081,0.164-0.13c0.006-0.004,0.012-0.006,0.016-0.012c0.002,0,0.002-0.002,0.004-0.004
		c0.055-0.052,0.103-0.11,0.147-0.172c0.012-0.018,0.021-0.033,0.032-0.051c0.016-0.023,0.033-0.045,0.047-0.071l2.83-5.189
		l4.777-1.825c0.515-0.195,0.84-0.664,0.816-1.174L128.973,66.065z M103.255,58.604c0.345-0.041,0.7-0.062,1.06-0.062
		c3.474,0,6.3,1.943,6.3,4.331v2.024h-7.37v-5.975C103.246,58.815,103.249,58.708,103.255,58.604z M109.549,53.146
		c3.474,0,6.3,2.59,6.3,5.776v5.975h-2.572v-2.024c0-3.732-4.021-6.768-8.961-6.768c-0.089,0-0.18,0.002-0.269,0.006
		C105.125,54.343,107.187,53.146,109.549,53.146z M98.012,62.872c0-1.43,1.015-2.699,2.575-3.487v5.512h-2.575V62.872z
		 M82.37,120.854l2.069-45.924h33.644l2.071,45.924H82.37z M124.08,115.353c-0.293,0.112-0.535,0.318-0.677,0.579l-0.747,1.37
		l-1.969-43.642c0-0.01-0.002-0.019-0.004-0.029c-0.004-0.066-0.014-0.13-0.029-0.194c-0.002-0.006-0.002-0.014-0.004-0.02
		c-0.018-0.066-0.042-0.13-0.073-0.191c-0.008-0.018-0.018-0.037-0.027-0.052c-0.01-0.02-0.018-0.039-0.027-0.056l-1.432-2.36
		l7.318-2.517l2.048,45.438L124.08,115.353z"/>
</g>
</svg>
