<?xml version="1.0" encoding="utf-8"?>
<!-- Generator: Adobe Illustrator 16.0.0, SVG Export Plug-In . SVG Version: 6.00 Build 0)  -->
<!DOCTYPE svg PUBLIC "-//W3C//DTD SVG 1.1//EN" "http://www.w3.org/Graphics/SVG/1.1/DTD/svg11.dtd">
<svg version="1.1" id="Layer_1" xmlns="http://www.w3.org/2000/svg" xmlns:xlink="http://www.w3.org/1999/xlink" x="0px" y="0px"
	 width="250px" height="350px" viewBox="0 0 250 350" enable-background="new 0 0 250 350" xml:space="preserve">
<g>
	<path fill="#FFFFFF" stroke="#FFFFFF" stroke-miterlimit="10" d="M122.683,154.28h4.577c0,13.738,4.582,54.958-9.159,82.439H99.782
		C118.101,218.399,122.683,190.919,122.683,154.28z"/>
	<path fill="#FFFFFF" stroke="#FFFFFF" stroke-miterlimit="10" d="M85.296,175.004c3.507-32.061,35.065-18.323,35.065-18.323
		C120.361,129.201,74.775,124.623,85.296,175.004z"/>
	<path fill="#FFFFFF" stroke="#FFFFFF" stroke-miterlimit="10" d="M122.683,156.681c5.313-32.061,54.959-22.902,32.06,22.9
		C159.323,142.943,122.683,156.681,122.683,156.681z"/>
	<path fill="#FFFFFF" stroke="#FFFFFF" stroke-miterlimit="10" d="M127.66,146.44c-14.038-29.308,31.886-50.284,39.396,0.368
		C149.795,114.168,127.66,146.44,127.66,146.44z"/>
	<path fill="#FFFFFF" stroke="#FFFFFF" stroke-miterlimit="10" d="M119.334,150.2c21.525-26.635-20.56-53.786-40.562-5.336
		C104.423,115.436,119.334,150.2,119.334,150.2z"/>
	<path fill="#FFFFFF" stroke="#FFFFFF" stroke-miterlimit="10" d="M122.681,156.321c7.73-19.439,35.174-7.039,15.259,18.683
		C145.908,152.585,122.681,156.321,122.681,156.321z"/>
	<path fill="#FFFFFF" stroke="#FFFFFF" stroke-miterlimit="10" d="M130.229,156.321c-7.73-19.439-35.173-7.039-15.257,18.683
		C107,152.585,130.229,156.321,130.229,156.321z"/>
	<rect x="124.5" y="146.5" fill="#FFFFFF" stroke="#FFFFFF" stroke-miterlimit="10" width="4" height="9"/>
	<rect x="123" y="143" fill="#FFFFFF" width="7" height="5"/>
	<rect x="121" y="148" fill="#FFFFFF" width="7" height="4"/>
	<rect x="121" y="152" fill="#FFFFFF" width="7" height="5"/>
</g>
</svg>
