<?xml version="1.0" encoding="utf-8"?>
<!-- Generator: Adobe Illustrator 16.0.0, SVG Export Plug-In . SVG Version: 6.00 Build 0)  -->
<!DOCTYPE svg PUBLIC "-//W3C//DTD SVG 1.1//EN" "http://www.w3.org/Graphics/SVG/1.1/DTD/svg11.dtd">
<svg version="1.1" id="Layer_1" xmlns="http://www.w3.org/2000/svg" xmlns:xlink="http://www.w3.org/1999/xlink" x="0px" y="0px"
	 width="410px" height="145px" viewBox="0 0 410 145" enable-background="new 0 0 410 145" xml:space="preserve">
<g>
	<rect x="41.305" y="600.842" fill="none" width="239.519" height="29.315"/>
	<text transform="matrix(1 0 0 1 99.335 629.7109)"><tspan x="0" y="0" fill="#FFFFFF" font-family="'Atlanta-BookOblique'" font-size="39" letter-spacing="3">B</tspan><tspan x="25.866" y="0" fill="#FFFFFF" font-family="'Atlanta-BookOblique'" font-size="30" letter-spacing="2">elleza</tspan></text>
</g>
<g>
	<path fill="#FFFFFF" d="M170.795,605.122h1.173v-6.582h-1.173v-1.685h8.749v3.15h-1.89v-1.466h-3.094v2.285h2.492v1.687h-2.492
		v2.61h3.094v-1.48h1.89v3.166h-8.749V605.122z"/>
	<path fill="#FFFFFF" d="M180.226,604.419h1.614c0.014,0.321,0.116,0.528,0.438,0.776c0.279,0.205,0.646,0.293,1.101,0.293
		c0.675,0,1.129-0.264,1.129-0.674c0-1.012-2.623-0.338-4.031-1.745c-0.293-0.292-0.513-0.746-0.513-1.26
		c0-1.188,1.069-2.039,2.564-2.039c0.631,0,1.217,0.119,1.745,0.339v-0.235h1.583v2.009h-1.583c-0.132-0.484-0.631-0.72-1.51-0.72
		c-0.586,0-0.953,0.222-0.953,0.529c0,0.967,4.515,0.044,4.515,2.917c0,1.349-0.938,2.33-2.726,2.33
		c-0.998,0-1.437-0.177-1.759-0.482v0.351h-1.614V604.419z"/>
	<path fill="#FFFFFF" d="M186.347,599.874h0.881v-1.085l2.242-1.583v2.668h1.42v1.599h-1.42v3.004c0,0.602,0.103,0.719,0.572,0.719
		c0.233,0,0.366-0.028,0.672-0.133v1.496c-0.555,0.234-1.112,0.352-1.655,0.352c-0.879,0-1.831-0.426-1.831-1.657v-3.78h-0.881
		V599.874z"/>
	<path fill="#FFFFFF" d="M190.871,599.874h3.342v5.335h0.924v1.599h-4.179v-1.599h1.012v-3.736h-1.099V599.874z"/>
	<path fill="#FFFFFF" d="M195.349,605.209h1.069v-6.756h-1.069v-1.598h3.311v8.354h0.998v1.599h-4.309V605.209z"/>
	<path fill="#FFFFFF" d="M203.417,606.969c-2.052,0-3.636-1.332-3.636-3.636c0-2.434,1.76-3.62,3.636-3.62
		c2.022,0,3.649,1.29,3.649,3.62C207.066,605.517,205.585,606.969,203.417,606.969z M203.417,601.428
		c-0.879,0-1.363,0.704-1.363,1.949c0,1.172,0.514,1.876,1.363,1.876c0.881,0,1.379-0.704,1.379-1.92
		C204.796,602.132,204.298,601.428,203.417,601.428z"/>
	<path fill="#FFFFFF" d="M206.959,605.122h1.483v-6.582h-1.483v-1.685h5.111c1.771,0,2.996,0.336,3.988,1.347
		c0.979,0.998,1.397,2.287,1.397,3.65c0,2.582-1.569,4.955-4.679,4.955h-5.818V605.122z M211.956,605.122
		c1.942,0,2.85-1.274,2.85-3.255c0-2.14-1.036-3.327-2.938-3.327h-0.877v6.582H211.956z"/>
	<path fill="#FFFFFF" d="M218.013,605.122h0.61v-6.582h-1.391v-1.685h8.726v3.062h-1.867v-1.378h-2.927v2.302h2.108v1.685h-2.108
		v2.596h0.623v1.686h-3.774V605.122z"/>
	<path fill="#FFFFFF" d="M194.347,598.038c0,0.673-0.542,1.217-1.216,1.217s-1.202-0.544-1.202-1.217
		c0-0.675,0.528-1.201,1.202-1.201S194.347,597.363,194.347,598.038z"/>
	<g>
		<path fill="#FFFFFF" d="M169.68,606.78v-0.22c0.141,0.003,0.235-0.088,0.235-0.198c0-0.079-0.06-0.144-0.139-0.144
			c-0.236,0-0.204,0.575-0.609,0.575c-0.253,0-0.354-0.19-0.354-0.35c0-0.102,0.04-0.185,0.12-0.237v-0.004h-0.107v-0.218h0.393
			v0.218c-0.117,0.018-0.19,0.088-0.19,0.188c0,0.073,0.045,0.128,0.105,0.128c0.21,0,0.163-0.598,0.62-0.598
			c0.309,0,0.384,0.239,0.384,0.376c0,0.115-0.041,0.202-0.125,0.26v0.004h0.109v0.22H169.68z"/>
		<path fill="#FFFFFF" d="M169.922,604.826c0.145,0.094,0.221,0.248,0.221,0.443c0,0.313-0.176,0.509-0.455,0.509
			c-0.283,0-0.488-0.203-0.488-0.485c0-0.271,0.206-0.488,0.531-0.467v0.662c0.104-0.002,0.227-0.058,0.227-0.223
			c0-0.075-0.025-0.125-0.106-0.209L169.922,604.826z M169.569,605.112c-0.113,0.015-0.182,0.086-0.182,0.19
			c0,0.105,0.059,0.167,0.182,0.186V605.112z"/>
		<path fill="#FFFFFF" d="M169.219,604.722v-0.46h0.075c-0.062-0.104-0.089-0.192-0.089-0.287c0-0.119,0.045-0.22,0.125-0.276
			c-0.087-0.13-0.125-0.231-0.125-0.355c0-0.164,0.069-0.31,0.298-0.31h0.41v-0.179h0.209v0.471h-0.523
			c-0.101,0-0.146,0.036-0.146,0.118c0,0.062,0.021,0.129,0.061,0.204h0.4v-0.163h0.209v0.455h-0.523
			c-0.105,0-0.146,0.034-0.146,0.114c0,0.066,0.018,0.121,0.061,0.208h0.4v-0.163h0.209v0.623h-0.209v-0.169h-0.486v0.169H169.219z"
			/>
		<path fill="#FFFFFF" d="M170.122,601.781v0.437h-0.07c0.059,0.084,0.083,0.157,0.083,0.244c0,0.19-0.12,0.331-0.282,0.331
			c-0.175,0-0.304-0.155-0.304-0.371c0-0.082,0.016-0.131,0.042-0.204h-0.051c-0.094,0-0.158,0.069-0.158,0.172
			c0,0.067,0.021,0.113,0.07,0.165l-0.04,0.231c-0.146-0.071-0.213-0.21-0.213-0.438c0-0.294,0.104-0.422,0.345-0.422h0.369v-0.146
			H170.122z M169.723,602.384c0,0.076,0.049,0.132,0.112,0.132c0.068,0,0.122-0.052,0.122-0.117c0-0.059-0.025-0.104-0.095-0.181
			h-0.074C169.743,602.29,169.723,602.34,169.723,602.384z"/>
		<path fill="#FFFFFF" d="M169.219,601.688v-0.432h0.084c-0.067-0.093-0.098-0.167-0.098-0.259c0-0.12,0.064-0.274,0.308-0.274h0.4
			v-0.132h0.209v0.425h-0.573c-0.072,0-0.1,0.028-0.1,0.083c0,0.05,0.021,0.105,0.057,0.157h0.407v-0.118h0.209v0.55h-0.209v-0.139
			h-0.486v0.139H169.219z"/>
		<path fill="#FFFFFF" d="M170.122,599.477v0.437h-0.07c0.059,0.085,0.083,0.157,0.083,0.245c0,0.188-0.12,0.33-0.282,0.33
			c-0.175,0-0.304-0.154-0.304-0.371c0-0.081,0.016-0.13,0.042-0.204h-0.051c-0.094,0-0.158,0.07-0.158,0.173
			c0,0.066,0.021,0.112,0.07,0.163l-0.04,0.233c-0.146-0.072-0.213-0.21-0.213-0.436c0-0.297,0.104-0.425,0.345-0.425h0.369v-0.146
			H170.122z M169.723,600.08c0,0.076,0.049,0.132,0.112,0.132c0.068,0,0.122-0.052,0.122-0.118c0-0.058-0.025-0.104-0.095-0.181
			h-0.074C169.743,599.984,169.723,600.036,169.723,600.08z"/>
		<path fill="#FFFFFF" d="M170.122,598.766v0.636h-0.209v-0.169h-0.486v0.153h-0.208v-0.414h0.23v-0.005
			c-0.157-0.051-0.244-0.165-0.244-0.312v-0.044h0.274v0.035c0,0.233,0.155,0.296,0.34,0.296h0.094v-0.176H170.122z"/>
		<path fill="#FFFFFF" d="M169.219,598.469v-0.425h0.694v-0.131h0.209v0.556h-0.209v-0.133h-0.486v0.133H169.219z M168.962,598.03
			c0.088,0,0.158,0.07,0.158,0.158s-0.07,0.156-0.158,0.156c-0.089,0-0.156-0.068-0.156-0.156S168.873,598.03,168.962,598.03z"/>
		<path fill="#FFFFFF" d="M170.143,597.329c0,0.268-0.173,0.473-0.473,0.473c-0.318,0-0.471-0.228-0.471-0.473
			c0-0.263,0.168-0.474,0.471-0.474C169.954,596.855,170.143,597.047,170.143,597.329z M169.422,597.329
			c0,0.115,0.091,0.178,0.253,0.178c0.154,0,0.245-0.067,0.245-0.178c0-0.114-0.091-0.179-0.25-0.179
			C169.513,597.15,169.422,597.215,169.422,597.329z"/>
	</g>
</g>
<circle fill="none" stroke="#FFFFFF" stroke-width="8" stroke-miterlimit="10" cx="203.729" cy="72.559" r="66.332"/>
<circle fill="#FFFFFF" cx="203.73" cy="72.559" r="57.084"/>
<g>
	<path fill="#010101" d="M203.061,110.175h0.858v-4.825h-0.858v-1.235h6.413v2.311h-1.387v-1.075h-2.267v1.676h1.827v1.235h-1.827
		v1.914h2.267v-1.085h1.387v2.319h-6.413V110.175z"/>
	<path fill="#010101" d="M209.974,109.658h1.182c0.011,0.236,0.086,0.387,0.321,0.569c0.205,0.152,0.475,0.214,0.806,0.214
		c0.495,0,0.828-0.193,0.828-0.494c0-0.74-1.923-0.246-2.954-1.279c-0.216-0.213-0.377-0.546-0.377-0.923
		c0-0.868,0.784-1.494,1.881-1.494c0.463,0,0.892,0.087,1.278,0.248v-0.172h1.16v1.473h-1.16c-0.096-0.354-0.463-0.528-1.106-0.528
		c-0.431,0-0.699,0.163-0.699,0.389c0,0.709,3.31,0.032,3.31,2.139c0,0.988-0.688,1.708-1.998,1.708
		c-0.732,0-1.054-0.13-1.289-0.356v0.259h-1.182V109.658z"/>
	<path fill="#010101" d="M214.459,106.327h0.646v-0.795l1.643-1.159v1.954h1.041v1.172h-1.041v2.202
		c0,0.439,0.074,0.526,0.418,0.526c0.172,0,0.27-0.021,0.494-0.098v1.097c-0.407,0.17-0.816,0.259-1.214,0.259
		c-0.643,0-1.341-0.313-1.341-1.216v-2.771h-0.646V106.327z"/>
	<path fill="#010101" d="M217.774,106.327h2.45v3.911h0.677v1.171h-3.063v-1.171h0.742v-2.739h-0.806V106.327z"/>
	<path fill="#010101" d="M221.056,110.238h0.785v-4.952h-0.785v-1.172h2.429v6.124h0.729v1.171h-3.158V110.238z"/>
	<path fill="#010101" d="M226.97,111.527c-1.504,0-2.665-0.978-2.665-2.665c0-1.783,1.29-2.653,2.665-2.653
		c1.482,0,2.675,0.945,2.675,2.653C229.645,110.463,228.561,111.527,226.97,111.527z M226.97,107.467
		c-0.646,0-0.999,0.516-0.999,1.429c0,0.86,0.377,1.374,0.999,1.374c0.645,0,1.01-0.514,1.01-1.407
		C227.979,107.982,227.614,107.467,226.97,107.467z"/>
	<path fill="#EA6624" d="M229.565,110.175h1.087v-4.825h-1.087v-1.235h3.747c1.296,0,2.195,0.248,2.922,0.988
		c0.717,0.73,1.023,1.677,1.023,2.676c0,1.892-1.15,3.631-3.428,3.631h-4.265V110.175z M233.226,110.175
		c1.425,0,2.091-0.937,2.091-2.386c0-1.569-0.759-2.439-2.152-2.439h-0.643v4.825H233.226z"/>
	<path fill="#EA6624" d="M237.668,110.175h0.446v-4.825h-1.021v-1.235h6.396v2.247h-1.367v-1.012h-2.146v1.688h1.547v1.232h-1.547
		v1.904h0.457v1.234h-2.765V110.175z"/>
	<path fill="#EA6624" d="M220.328,104.981c0,0.494-0.397,0.892-0.892,0.892c-0.496,0-0.883-0.397-0.883-0.892
		c0-0.492,0.387-0.88,0.883-0.88C219.931,104.102,220.328,104.489,220.328,104.981z"/>
</g>
<path fill-rule="evenodd" clip-rule="evenodd" d="M184.395,62.679c-0.698-0.39-1.354-0.949-2.101-1.14
	c-3.292-0.841-6.612-1.573-9.92-2.346c-1.058-0.248-2.114-0.503-3.348-0.796c0,1.789,0.033,3.707-0.019,5.623
	c-0.017,0.616-0.081,1.604-0.429,1.767c-0.9,0.421-1.421-0.423-1.77-1.132c-1.392-2.835-1.982-5.876-1.655-8.987
	c0.499-4.75,1.896-9.268,4.148-13.494c1.288-2.416,2.092-2.646,4.551-1.445c1.92,0.938,2.236,1.929,1.174,3.763
	c-0.971,1.676-1.962,3.339-2.931,5.014c-0.212,0.367-0.37,0.767-0.641,1.336c0.463-0.081,0.768-0.096,1.05-0.186
	c4.238-1.381,7.628-3.913,10.124-7.603c0.454-0.67,0.785-1.458,1.015-2.239c0.537-1.829-0.152-3.196-1.942-3.855
	c-2.405-0.886-4.878-0.737-7.326-0.243c-4.644,0.938-8.333,3.549-11.597,6.835c-1.262,1.271-2.403,2.662-3.653,3.947
	c-0.263,0.271-0.762,0.314-1.152,0.463c-0.028-0.431-0.196-0.918-0.051-1.277c0.265-0.654,0.643-1.293,1.099-1.833
	c4.23-5.002,9.396-8.599,15.789-10.27c2.438-0.636,4.903-0.627,7.337,0.09c3.271,0.965,4.628,3.303,3.766,6.611
	c-0.879,3.366-2.916,6.061-5.299,8.483c-1.552,1.578-3.285,2.978-5.058,4.566c0.906,0.334,1.813,0.694,2.736,1.005
	c2.48,0.834,4.752,2.016,6.587,3.925c3.665,3.812,3.476,8.625-0.534,12.074c-3.808,3.272-8.314,5.177-13.119,6.431
	c-3.196,0.836-6.439,1.231-9.675,0.338c-1.252-0.347-2.545-0.87-3.574-1.642c-2.052-1.539-1.97-3.977,0.275-5.144
	c2.753-1.43,5.62-2.75,8.579-3.651c5.414-1.651,10.932-2.957,16.408-4.407c0.344-0.091,0.686-0.186,1.03-0.279
	C184.312,62.88,184.353,62.78,184.395,62.679z M185.374,64.166c-0.105-0.073-0.21-0.147-0.316-0.221
	c-0.241,0.042-0.489,0.062-0.726,0.127c-4.492,1.237-9.006,2.402-13.466,3.747c-3.013,0.909-5.958,2.054-8.913,3.15
	c-0.587,0.217-1.076,0.692-1.611,1.047c0.033,0.133,0.065,0.265,0.099,0.398c0.68,0.118,1.358,0.32,2.041,0.341
	c6.899,0.209,13.365-1.434,19.408-4.72c0.986-0.537,1.863-1.336,2.657-2.145C184.97,65.458,185.107,64.75,185.374,64.166z"/>
<path fill-rule="evenodd" clip-rule="evenodd" d="M139.117,75.876c0.23,0.032,0.474,0.03,0.69,0.104
	c8.664,2.982,17.601,3.876,26.706,3.483c9.033-0.391,17.72-2.407,26.257-5.304c11.62-3.943,23.397-7.33,35.509-9.443
	c10.996-1.92,22.017-2.343,33.079-0.618c1.908,0.299,3.853,0.477,5.703,0.989c1.382,0.381,2.642,1.205,3.944,1.855
	c0.159,0.079,0.244,0.307,0.521,0.672c-0.748-0.116-1.264-0.175-1.771-0.275c-14.078-2.772-28.087-2.185-42.07,0.749
	c-11.494,2.413-22.675,5.895-33.821,9.545c-14.827,4.854-29.907,5.934-45.176,2.354c-2.732-0.64-5.359-1.742-8.006-2.708
	c-0.624-0.229-1.132-0.776-1.692-1.177C139.031,76.027,139.073,75.951,139.117,75.876z"/>
<path fill-rule="evenodd" clip-rule="evenodd" d="M205.046,91.77c0.534-1.031,1.038-2.081,1.612-3.091
	c0.87-1.523,1.713-3.072,2.71-4.511c1.04-1.505,2.056-1.594,4.17-0.635c1.412,0.643,1.962,1.632,1.579,3.239
	c-0.726,3.044-1.342,6.095-1.209,9.248c0.039,0.895,0.127,1.79,0.135,2.685c0.011,1.073-0.367,1.341-1.415,1.071
	c-1.205-0.308-1.981-1.121-2.511-2.19c-0.983-1.982-1.152-4.124-1.192-6.287c-0.013-0.697-0.001-1.394-0.167-2.122
	c-0.875,1.747-1.716,3.513-2.637,5.236c-0.556,1.039-1.229,2.018-1.866,3.012c-0.401,0.625-0.948,0.749-1.677,0.556
	c-2.626-0.695-3.892-2.45-3.396-5.114c0.785-4.229,1.708-8.432,2.532-12.655c0.153-0.785,0.113-1.607,0.165-2.457
	c-1.098-0.079-1.422,0.666-1.682,1.262c-0.816,1.868-1.623,3.751-2.26,5.685c-1.267,3.847-2.417,7.732-3.614,11.601
	c-0.043,0.138-0.084,0.276-0.098,0.418c-0.147,1.48-0.522,1.698-1.943,1.101c-1.224-0.516-2.022-1.508-2.222-2.733
	c-0.339-2.07-0.562-4.181-0.583-6.277c-0.019-1.819,0.341-3.639,0.473-5.462c0.049-0.693-0.017-1.407-0.127-2.097
	c-0.103-0.635,0.181-0.913,0.725-0.921c1.635-0.021,3.171,0.378,4.275,1.635c0.362,0.412,0.508,1.199,0.432,1.773
	c-0.272,2.097-0.685,4.173-1.038,6.259c-0.063,0.385-0.093,0.774,0.057,1.224c0.099-0.304,0.186-0.611,0.299-0.91
	c1.418-3.712,2.8-7.438,4.29-11.122c0.367-0.909,1.011-1.738,1.657-2.496c1.468-1.719,3.752-1.565,4.75,0.486
	c0.633,1.303,1.045,2.9,0.956,4.328c-0.19,3.025-0.771,6.028-1.197,9.04c-0.054,0.381-0.139,0.758-0.209,1.137
	C204.894,91.711,204.97,91.74,205.046,91.77z"/>
<path fill-rule="evenodd" clip-rule="evenodd" d="M234.771,43.914c-1.149,2.62-2.268,5.253-3.453,7.854
	c-1.158,2.542-2.331,5.079-3.603,7.566c-0.849,1.663-2.092,1.821-3.524,0.568c-1.415-1.239-1.978-2.961-2.062-4.714
	c-0.146-2.959-0.021-5.932-0.014-8.899c0.002-0.353,0.099-0.757-0.037-1.05c-0.417-0.895,0.047-1.117,0.782-1.123
	c0.678-0.005,1.37,0,2.031,0.125c2.499,0.477,3.006,1.259,2.665,3.778c-0.288,2.129-0.51,4.268-0.749,6.404
	c-0.026,0.225,0.027,0.46,0.228,0.731c0.159-0.337,0.322-0.672,0.475-1.013c1.961-4.345,3.889-8.707,6.718-12.589
	c0.147-0.203,0.306-0.398,0.463-0.593c1.741-2.132,3.012-2.323,5.706-0.767c1.007,0.582,1.435,1.432,1.086,2.631
	c-0.852,2.923-1.661,5.859-2.493,8.789c-0.949,3.343-1.394,6.727-0.847,10.199c0.139,0.886-0.285,1.22-1.247,0.951
	c-1.948-0.548-3.163-1.883-3.842-3.747c-0.69-1.9-0.46-3.836-0.098-5.739c0.518-2.708,1.152-5.395,1.739-8.09
	c0.088-0.402,0.193-0.8,0.291-1.2C234.915,43.964,234.843,43.939,234.771,43.914z"/>
<path fill-rule="evenodd" clip-rule="evenodd" d="M193.841,67.006c0.74-1.375,1.478-2.752,2.222-4.125
	c1.374-2.53,2.606-5.095,2.8-8.052c0.087-1.316,0.686-1.668,1.982-1.383c0.732,0.16,1.467,0.367,2.152,0.665
	c1.597,0.695,1.939,1.485,1.487,3.162c-0.891,3.306-1.451,6.656-1.352,10.093c0.017,0.609,0.099,1.214,0.146,1.823
	c0.085,1.123-0.17,1.341-1.294,1.12c-2.468-0.486-4.218-2.445-4.418-5.033c-0.076-0.993-0.012-1.998-0.012-3.173
	c-0.461,0.853-0.875,1.61-1.281,2.371c-0.641,1.202-1.304,2.394-1.898,3.621c-0.189,0.387-0.3,0.883-0.249,1.304
	c0.114,0.957-0.374,1.065-1.089,0.889c-1.643-0.405-2.753-1.479-3.52-2.938c-0.965-1.833-1.022-3.808-0.675-5.774
	c0.647-3.671,1.408-7.323,2.084-10.988c0.121-0.657,0.144-1.357,0.056-2.017c-0.123-0.917,0.277-1.294,1.07-1.062
	c1.152,0.339,2.315,0.735,3.36,1.312c1.006,0.553,1.259,1.513,0.949,2.696c-0.907,3.464-1.815,6.933-2.542,10.436
	c-0.334,1.614-0.248,3.315-0.353,4.977C193.59,66.953,193.715,66.979,193.841,67.006z"/>
<path fill-rule="evenodd" clip-rule="evenodd" d="M246.184,72.647c-2.603,4.081-5.174,8.211-6.071,13.052
	c-0.237,1.279,0.18,2.693,0.365,4.035c0.158,1.139-0.22,1.606-1.383,1.488c-1.076-0.108-1.853-0.717-2.45-1.579
	c-1.059-1.525-1.446-3.283-1.587-5.078c-0.396-5.02,0.201-9.95,1.531-14.799c0.019-0.07,0.047-0.135,0.07-0.203
	c0.664-2.009,1.047-2.365,2.256-2.102c2.017,0.438,3.148,1.753,2.927,3.49c-0.095,0.742-0.357,1.46-0.511,2.196
	c-0.486,2.337-0.957,4.675-1.435,7.012c0.137,0.039,0.271,0.077,0.407,0.114c0.115-0.228,0.232-0.453,0.344-0.683
	c1.38-2.872,2.752-5.748,4.148-8.613c0.217-0.447,0.528-0.853,0.819-1.262c1.52-2.132,2.981-2.497,5.354-1.341
	c0.916,0.448,1.469,1.179,1.484,2.199c0.032,2.076-0.352,4.083-1.408,5.891c-1.05,1.798-4.254,1.788-5.364-0.004
	c-0.196-0.317-0.202-0.828-0.133-1.222C245.705,74.365,245.966,73.51,246.184,72.647z"/>
<path fill-rule="evenodd" clip-rule="evenodd" d="M158.053,100.486c0.025-6.636,2.541-11.704,7.642-15.435
	c1.894-1.384,4.039-2.174,6.428-2.084c2.436,0.091,3.562,1.347,3.252,3.758c-0.33,2.572-1.516,4.765-3.374,6.562
	c-0.313,0.303-0.867,0.356-1.31,0.525c-0.016-0.438-0.152-0.915-0.025-1.306c0.486-1.499,1.062-2.967,1.595-4.45
	c0.133-0.37,0.307-0.749,0.325-1.132c0.034-0.647-0.042-1.301-0.071-1.953c-0.717,0.074-1.513-0.026-2.137,0.254
	c-1.799,0.809-2.979,2.337-3.97,3.973c-3,4.958-3.906,10.346-3.012,16.03c0.174,1.104,0.633,2.211,1.179,3.197
	c0.695,1.261,1.542,1.306,2.245,0.069c1.076-1.889,1.978-3.882,2.88-5.864c0.401-0.878,0.688-1.047,1.468-0.466
	c0.854,0.634,1.329,1.518,0.942,2.532c-0.507,1.327-1.028,2.71-1.857,3.837c-2.225,3.032-6.604,3.033-9.522,0.121
	c-1.689-1.687-2.293-3.844-2.553-6.128C158.087,101.746,158.08,100.955,158.053,100.486z"/>
<path fill-rule="evenodd" clip-rule="evenodd" d="M221.97,80.797c-0.854,2.28,0.349,6.399,2.216,7.792
	c0.828,0.619,1.732,0.61,2.665,0.396c1.99-0.457,3.324-1.804,4.367-3.43c0.77-1.2,1.33-2.53,2.028-3.778
	c0.167-0.3,0.514-0.497,0.777-0.742c0.029,0.378,0.214,0.838,0.063,1.118c-1.092,2.047-2.051,4.207-3.427,6.052
	c-4.604,6.171-11.213,3.017-13.497-1.259c-1.029-1.929-1.437-3.963-1.076-6.13c0.54-3.244,1.882-6.127,3.797-8.795
	c1.668-2.325,3.926-2.662,6.485-2.213c2.523,0.443,3.721,1.671,3.662,4.221c-0.035,1.573-0.316,3.232-0.904,4.682
	c-1,2.467-3.082,3.275-5.643,2.547C222.977,81.112,222.472,80.95,221.97,80.797z M227.63,75.375
	c-0.352-0.718-0.521-1.647-0.945-1.782c-0.534-0.172-1.317,0.222-1.914,0.526c-0.382,0.195-0.702,0.631-0.908,1.031
	c-0.534,1.044-1.06,2.104-1.461,3.204c-0.537,1.475,0.041,2.194,1.594,1.851c0.767-0.17,1.657-0.683,2.076-1.316
	C226.761,77.853,227.114,76.594,227.63,75.375z"/>
<path fill-rule="evenodd" clip-rule="evenodd" d="M174.192,95.452c0.339-2.866,0.686-5.631,1.909-8.209
	c0.568-1.197,1.358-2.179,2.694-2.62c0.299-0.098,0.565-0.404,0.762-0.677c1.436-1.978,3.461-2.118,5.603-1.766
	c1.884,0.312,2.707,1.747,2.959,3.412c0.814,5.355-0.065,10.436-3.013,15.028c-0.612,0.952-1.595,1.79-2.594,2.343
	c-2.708,1.5-6.021,0.35-7.154-2.537C174.74,98.858,174.566,97.116,174.192,95.452z M180.446,98.132
	c0.025,0.005,0.05,0.008,0.074,0.013c0,0.394-0.024,0.788,0.006,1.18c0.063,0.854,0.023,1.879,1.05,2.138
	c1.027,0.257,1.408-0.736,1.751-1.425c1.95-3.908,2.964-8.053,2.758-12.432c-0.04-0.843-0.409-1.742-0.856-2.475
	c-0.443-0.727-1.209-0.667-1.527,0.043c-0.765,1.715-1.67,3.415-2.093,5.221C181.02,92.926,180.815,95.55,180.446,98.132z"/>
<path fill-rule="evenodd" clip-rule="evenodd" d="M210.934,54.639c-0.772,2.361,0.3,6.279,2.087,7.688
	c1.356,1.07,2.805,0.72,4.137-0.006c0.889-0.486,1.641-1.219,2.454-1.841c-0.032,2.584-2.7,4.912-5.737,5.002
	c-4.173,0.122-7.992-3.198-8.797-7.657c-0.55-3.049,0.412-5.832,1.725-8.472c0.771-1.552,1.782-3.03,2.911-4.348
	c1.6-1.868,6.147-2.134,7.91-0.427c0.728,0.705,1.164,1.884,1.364,2.919c0.338,1.757-0.073,3.5-0.851,5.115
	c-1.137,2.366-3.177,3.244-5.706,2.5C211.951,54.971,211.477,54.811,210.934,54.639z M216.582,49.164
	c-0.337-0.672-0.52-1.598-0.937-1.72c-0.545-0.16-1.325,0.229-1.912,0.55c-0.406,0.223-0.739,0.689-0.964,1.12
	c-0.508,0.976-0.998,1.974-1.37,3.009c-0.569,1.585,0.039,2.324,1.699,1.901c0.783-0.2,1.648-0.799,2.087-1.471
	C215.825,51.572,216.111,50.362,216.582,49.164z"/>
<path fill-rule="evenodd" clip-rule="evenodd" d="M216.452,39.543c-1.265,0.308-2.1-0.257-2.901-1.062
	c-2.451-2.462-4.938-4.892-7.416-7.329c-0.304-0.3-0.643-0.563-1.056-0.923c-0.345,0.275-0.682,0.521-0.991,0.794
	c-2.919,2.598-5.841,5.19-8.741,7.808c-0.827,0.746-1.707,1.15-2.874,0.825c-0.255-1.199,0.302-1.98,1.223-2.607
	c3.229-2.199,6.454-4.401,9.678-6.606c0.291-0.198,0.564-0.421,0.691-0.516c-1.858-1.363-3.836-2.584-5.525-4.123
	c-1.381-1.259-2.426-2.889-3.604-4.37c-0.15-0.188-0.265-0.457-0.271-0.692c-0.017-0.509,0.047-1.021,0.078-1.53
	c0.419,0.197,0.918,0.305,1.244,0.604c3.066,2.806,6.11,5.633,9.136,8.482c0.396,0.374,0.669,0.431,1.089,0.093
	c1.275-1.025,2.819-1.869,2.436-3.93c-0.023-0.119,0.146-0.324,0.277-0.414c1.873-1.285,3.756-2.558,5.772-3.653
	c-1.171,1.038-2.343,2.075-3.515,3.112c0.04,0.053,0.078,0.105,0.119,0.158c1.185-0.797,2.369-1.595,3.555-2.391
	c0.049,0.067,0.098,0.133,0.147,0.2c-0.937,0.826-1.875,1.652-2.812,2.479c0.055,0.071,0.107,0.142,0.161,0.213
	c1.155-0.792,2.311-1.585,3.468-2.38c0.046,0.056,0.093,0.11,0.141,0.166c-1.219,1.08-2.438,2.159-3.656,3.238
	c0.042,0.054,0.085,0.11,0.127,0.164c1.388-0.963,2.775-1.926,4.161-2.89c0.059,0.071,0.117,0.143,0.177,0.214
	c-1.652,1.381-3.289,2.779-4.97,4.126c-0.275,0.222-0.726,0.272-1.107,0.314c-2.212,0.242-2.592,0.41-4.402,2.135
	c0.272,0.262,0.53,0.536,0.814,0.774c2.744,2.306,5.48,4.621,8.246,6.898C216.167,37.603,216.59,38.381,216.452,39.543z"/>
<path fill-rule="evenodd" clip-rule="evenodd" d="M195.355,105.312c0.186,0.201,0.37,0.402,0.494,0.537
	c0.319-0.563,0.551-1.185,0.968-1.637c0.232-0.253,0.81-0.375,1.152-0.277c0.242,0.069,0.536,0.643,0.483,0.933
	c-0.189,1.05-0.514,2.074-0.794,3.129c1.167,0.38,1.376,1.142,0.323,2.249c-0.413,0.435-0.938,0.768-1.426,1.129
	c-0.339,0.25-0.7,0.469-0.844,0.841c-0.542,0.027-1.088,0.104-1.627,0.072c-1.017-0.063-2.033-0.167-3.04-0.322
	c-0.136-0.021-0.209-0.444-0.312-0.681c0.22-0.007,0.441-0.005,0.662-0.021c1.09-0.073,2.183-0.111,3.264-0.26
	c0.19-0.026,0.451-0.509,0.455-0.784c0.019-1.108-0.054-2.219-0.083-3.329c-0.013-0.516-0.001-1.033-0.001-1.55
	C195.137,105.331,195.247,105.32,195.355,105.312z M196.148,110.562c0.74-0.623,1.308-1.102,1.876-1.58
	c-0.057-0.063-0.114-0.128-0.172-0.191c-0.551,0-1.103,0-1.705,0C196.148,109.333,196.148,109.805,196.148,110.562z
	 M196.421,107.251c0.102,0.041,0.204,0.079,0.307,0.118c0.708-0.812,1.211-1.702,1.088-2.827c-0.125-0.047-0.249-0.094-0.373-0.142
	C197.102,105.352,196.761,106.302,196.421,107.251z"/>
<path fill-rule="evenodd" clip-rule="evenodd" d="M198.875,110.819c0.347-1.126,0.819-2.069,0.884-3.04
	c0.062-0.924-0.3-1.878-0.27-2.927c0.284,0.41,0.568,0.821,0.874,1.261c0.372-0.55,0.739-1.092,1.105-1.637
	C201.899,106.146,200.137,110.457,198.875,110.819z"/>
<path fill-rule="evenodd" clip-rule="evenodd" fill="#FFFFFF" d="M185.374,64.166c-0.266,0.584-0.404,1.293-0.827,1.724
	c-0.794,0.808-1.671,1.607-2.657,2.145c-6.042,3.286-12.509,4.929-19.408,4.72c-0.683-0.021-1.361-0.223-2.041-0.341
	c-0.034-0.133-0.066-0.265-0.099-0.398c0.535-0.354,1.024-0.83,1.611-1.047c2.955-1.096,5.9-2.241,8.913-3.15
	c4.459-1.345,8.974-2.51,13.466-3.747c0.237-0.065,0.485-0.085,0.726-0.127C185.163,64.019,185.269,64.093,185.374,64.166z"/>
<path fill-rule="evenodd" clip-rule="evenodd" fill="#FFFFFF" d="M227.63,75.375c-0.516,1.219-0.869,2.478-1.559,3.514
	c-0.419,0.634-1.31,1.146-2.076,1.316c-1.553,0.344-2.131-0.376-1.594-1.851c0.401-1.1,0.927-2.16,1.461-3.204
	c0.206-0.4,0.526-0.836,0.908-1.031c0.597-0.305,1.38-0.698,1.914-0.526C227.109,73.728,227.278,74.657,227.63,75.375z"/>
<path fill-rule="evenodd" clip-rule="evenodd" fill="#FFFFFF" d="M180.446,98.132c0.369-2.582,0.573-5.206,1.163-7.737
	c0.423-1.806,1.329-3.506,2.093-5.221c0.318-0.71,1.084-0.77,1.527-0.043c0.448,0.732,0.816,1.632,0.856,2.475
	c0.206,4.379-0.808,8.523-2.758,12.432c-0.344,0.688-0.725,1.682-1.751,1.425c-1.026-0.259-0.986-1.284-1.05-2.138
	c-0.031-0.392-0.006-0.786-0.006-1.18C180.496,98.14,180.471,98.137,180.446,98.132z"/>
<path fill-rule="evenodd" clip-rule="evenodd" fill="#FFFFFF" d="M216.582,49.164c-0.471,1.199-0.757,2.408-1.396,3.388
	c-0.438,0.672-1.304,1.271-2.087,1.471c-1.66,0.423-2.269-0.316-1.699-1.901c0.372-1.035,0.862-2.033,1.37-3.009
	c0.225-0.431,0.558-0.897,0.964-1.12c0.587-0.321,1.367-0.709,1.912-0.55C216.062,47.565,216.245,48.492,216.582,49.164z"/>
<path fill-rule="evenodd" clip-rule="evenodd" fill="#FFFFFF" d="M196.148,110.562c0-0.758,0-1.229,0-1.771c0.602,0,1.153,0,1.705,0
	c0.058,0.063,0.115,0.128,0.172,0.191C197.457,109.461,196.889,109.939,196.148,110.562z"/>
<path fill-rule="evenodd" clip-rule="evenodd" fill="#FFFFFF" d="M196.421,107.251c0.34-0.949,0.681-1.899,1.022-2.851
	c0.124,0.048,0.248,0.095,0.373,0.142c0.123,1.125-0.381,2.015-1.088,2.827C196.625,107.33,196.523,107.292,196.421,107.251z"/>
</svg>
