<?xml version="1.0" encoding="utf-8"?>
<!-- Generator: Adobe Illustrator 16.0.0, SVG Export Plug-In . SVG Version: 6.00 Build 0)  -->
<!DOCTYPE svg PUBLIC "-//W3C//DTD SVG 1.1//EN" "http://www.w3.org/Graphics/SVG/1.1/DTD/svg11.dtd">
<svg version="1.1" id="Layer_1" xmlns="http://www.w3.org/2000/svg" xmlns:xlink="http://www.w3.org/1999/xlink" x="0px" y="0px"
	 width="410px" height="145px" viewBox="0 0 410 145" enable-background="new 0 0 410 145" xml:space="preserve">
<g>
	<path fill="#FFFFFF" d="M96.915,79.229h4.622V53.266h-4.622v-6.647h34.515v12.43h-7.458v-5.783h-12.201v9.018h9.828v6.65h-9.828
		v10.295h12.201v-5.841h7.458v12.489H96.915V79.229z"/>
	<path fill="#FFFFFF" d="M134.116,76.453h6.363c0.057,1.269,0.462,2.082,1.732,3.063c1.099,0.809,2.543,1.158,4.339,1.158
		c2.66,0,4.45-1.043,4.45-2.662c0-3.989-10.349-1.328-15.899-6.879c-1.157-1.157-2.024-2.95-2.024-4.975
		c0-4.68,4.222-8.037,10.118-8.037c2.489,0,4.799,0.465,6.881,1.329v-0.923h6.244v7.921h-6.244
		c-0.521-1.908-2.487-2.836-5.952-2.836c-2.314,0-3.761,0.872-3.761,2.086c0,3.818,17.809,0.171,17.809,11.506
		c0,5.32-3.703,9.192-10.755,9.192c-3.934,0-5.667-0.693-6.938-1.905v1.386h-6.363V76.453z"/>
	<path fill="#FFFFFF" d="M158.261,58.527h3.473v-4.278l8.843-6.244v10.522h5.601v6.305h-5.601v11.853
		c0,2.367,0.405,2.832,2.256,2.832c0.924,0,1.446-0.115,2.656-0.522v5.9c-2.191,0.922-4.393,1.386-6.532,1.386
		c-3.466,0-7.223-1.68-7.223-6.535V64.832h-3.473V58.527z"/>
	<path fill="#FFFFFF" d="M176.104,58.527h13.182v21.046h3.646v6.304h-16.484v-6.304h3.992V64.832h-4.335V58.527z"/>
	<path fill="#FFFFFF" d="M193.766,79.573h4.218V52.92h-4.218v-6.301h13.06v32.955h3.932v6.304h-16.992V79.573z"/>
	<path fill="#FFFFFF" d="M225.595,86.512c-8.099,0-14.345-5.259-14.345-14.339c0-9.598,6.939-14.281,14.345-14.281
		c7.974,0,14.393,5.088,14.393,14.281C239.987,80.788,234.146,86.512,225.595,86.512z M225.595,64.654
		c-3.472,0-5.38,2.778-5.38,7.69c0,4.627,2.022,7.4,5.38,7.4c3.468,0,5.433-2.773,5.433-7.573
		C231.027,67.432,229.062,64.654,225.595,64.654z"/>
	<path fill="#FFFFFF" d="M239.562,79.229h5.853V53.266h-5.853v-6.647h20.164c6.981,0,11.811,1.327,15.731,5.316
		c3.858,3.934,5.508,9.02,5.508,14.399c0,10.177-6.191,19.543-18.458,19.543h-22.945V79.229z M259.271,79.229
		c7.665,0,11.246-5.032,11.246-12.838c0-8.442-4.091-13.125-11.59-13.125h-3.462v25.963H259.271z"/>
	<path fill="#FFFFFF" d="M283.169,79.229h2.405V53.266h-5.493v-6.647H314.5V58.7h-7.36v-5.435h-11.547v9.081h8.317v6.645h-8.317
		v10.237h2.455v6.648h-14.879V79.229z"/>
	<path fill="#FFFFFF" d="M189.816,51.284c0,2.66-2.14,4.8-4.8,4.8c-2.656,0-4.74-2.14-4.74-4.8c0-2.658,2.083-4.74,4.74-4.74
		C187.676,46.544,189.816,48.625,189.816,51.284z"/>
	<g>
		<path fill="#FFFFFF" d="M92.52,85.767v-0.867c0.552,0.016,0.928-0.342,0.928-0.78c0-0.312-0.24-0.566-0.548-0.566
			c-0.933,0-0.805,2.266-2.409,2.266c-0.993,0-1.389-0.745-1.389-1.378c0-0.396,0.158-0.724,0.472-0.936v-0.012h-0.421v-0.859h1.548
			v0.859c-0.465,0.068-0.751,0.346-0.751,0.737c0,0.292,0.176,0.504,0.415,0.504c0.827,0,0.641-2.354,2.442-2.354
			c1.221,0,1.521,0.941,1.521,1.483c0,0.449-0.166,0.794-0.495,1.021v0.015h0.429v0.867H92.52z"/>
		<path fill="#FFFFFF" d="M93.472,78.066c0.573,0.368,0.874,0.973,0.874,1.747c0,1.234-0.695,2.006-1.801,2.006
			c-1.113,0-1.923-0.803-1.923-1.917c0-1.066,0.817-1.928,2.097-1.836v2.607c0.409-0.013,0.891-0.229,0.891-0.877
			c0-0.299-0.097-0.496-0.413-0.827L93.472,78.066z M92.085,79.189c-0.45,0.06-0.72,0.339-0.72,0.751
			c0,0.415,0.231,0.662,0.72,0.733V79.189z"/>
		<path fill="#FFFFFF" d="M90.701,77.646v-1.813h0.295c-0.241-0.411-0.347-0.758-0.347-1.129c0-0.472,0.173-0.865,0.49-1.088
			c-0.345-0.513-0.49-0.913-0.49-1.408c0-0.646,0.27-1.22,1.177-1.22h1.615V70.28h0.821v1.859h-2.069
			c-0.392,0-0.572,0.144-0.572,0.466c0,0.248,0.083,0.509,0.238,0.806h1.582v-0.64h0.821v1.792h-2.069
			c-0.407,0-0.572,0.134-0.572,0.455c0,0.259,0.067,0.476,0.238,0.814h1.582v-0.638h0.821v2.451H93.44v-0.663h-1.918v0.663H90.701z"
			/>
		<path fill="#FFFFFF" d="M94.262,66.051v1.723h-0.279c0.23,0.331,0.331,0.619,0.331,0.963c0,0.747-0.472,1.303-1.116,1.303
			c-0.691,0-1.195-0.609-1.195-1.463c0-0.321,0.06-0.517,0.16-0.803h-0.197c-0.37,0-0.625,0.271-0.625,0.678
			c0,0.265,0.083,0.443,0.279,0.647l-0.16,0.917c-0.576-0.283-0.84-0.83-0.84-1.726c0-1.162,0.411-1.667,1.359-1.667h1.461v-0.572
			H94.262z M92.689,68.428c0,0.302,0.188,0.523,0.443,0.523c0.271,0,0.476-0.205,0.476-0.469c0-0.226-0.097-0.404-0.37-0.708h-0.292
			C92.766,68.055,92.689,68.256,92.689,68.428z"/>
		<path fill="#FFFFFF" d="M90.701,65.682v-1.699h0.331c-0.27-0.371-0.383-0.662-0.383-1.024c0-0.472,0.254-1.083,1.21-1.083h1.582
			v-0.518h0.821v1.671h-2.258c-0.287,0-0.396,0.117-0.396,0.33c0,0.196,0.08,0.413,0.229,0.624h1.604v-0.475h0.821v2.174H93.44
			v-0.549h-1.918v0.549H90.701z"/>
		<path fill="#FFFFFF" d="M94.262,56.963v1.723h-0.279c0.23,0.331,0.331,0.618,0.331,0.963c0,0.743-0.472,1.303-1.116,1.303
			c-0.691,0-1.195-0.613-1.195-1.463c0-0.323,0.06-0.517,0.16-0.803h-0.197c-0.37,0-0.625,0.272-0.625,0.677
			c0,0.264,0.083,0.444,0.279,0.646l-0.16,0.919c-0.576-0.287-0.84-0.829-0.84-1.722c0-1.168,0.411-1.673,1.359-1.673h1.461v-0.57
			H94.262z M92.689,59.341c0,0.301,0.188,0.518,0.443,0.518c0.271,0,0.476-0.204,0.476-0.466c0-0.227-0.097-0.406-0.37-0.707h-0.292
			C92.766,58.965,92.689,59.166,92.689,59.341z"/>
		<path fill="#FFFFFF" d="M94.262,54.156v2.506H93.44v-0.664h-1.918V56.6h-0.821v-1.632h0.907v-0.013
			c-0.621-0.21-0.959-0.656-0.959-1.242v-0.169h1.076v0.137c0,0.918,0.617,1.168,1.34,1.168h0.375v-0.694H94.262z"/>
		<path fill="#FFFFFF" d="M90.701,52.983v-1.671h2.74v-0.519h0.821v2.19H93.44v-0.521h-1.918v0.521H90.701z M89.688,51.252
			c0.346,0,0.623,0.279,0.623,0.624c0,0.348-0.277,0.618-0.623,0.618c-0.35,0-0.617-0.27-0.617-0.618
			C89.07,51.531,89.337,51.252,89.688,51.252z"/>
		<path fill="#FFFFFF" d="M94.345,48.49c0,1.055-0.686,1.866-1.866,1.866c-1.253,0-1.858-0.9-1.858-1.866
			c0-1.038,0.662-1.872,1.858-1.872C93.6,46.619,94.345,47.376,94.345,48.49z M91.5,48.49c0,0.453,0.359,0.701,1,0.701
			c0.604,0,0.963-0.266,0.963-0.701c0-0.45-0.359-0.707-0.984-0.707C91.858,47.783,91.5,48.041,91.5,48.49z"/>
	</g>
	<line fill="none" stroke="#FFFFFF" stroke-miterlimit="10" x1="90" y1="97.5" x2="168" y2="97.5"/>
	<line fill="none" stroke="#FFFFFF" stroke-miterlimit="10" x1="234" y1="97.5" x2="313" y2="97.5"/>
	<g>
		<path fill="#FFFFFF" d="M171.601,99.218v-6.825h1.011l3.916,5.358v-5.358h0.946v6.825h-1.013l-3.915-5.362v5.362H171.601z"/>
		<path fill="#FFFFFF" d="M189.563,99.218v-6.825h5.389v0.807h-4.402v2.091h4.124v0.798h-4.124v2.324h4.574v0.806H189.563z"/>
		<path fill="#FFFFFF" d="M208.2,99.218l-1.978-6.825h1.012l1.135,4.475c0.12,0.468,0.227,0.933,0.314,1.396
			c0.188-0.73,0.301-1.151,0.336-1.262l1.418-4.609h1.189l1.067,3.454c0.269,0.856,0.462,1.662,0.58,2.417
			c0.095-0.431,0.219-0.929,0.372-1.485l1.169-4.386h0.991l-2.045,6.825h-0.949l-1.57-5.199c-0.133-0.434-0.211-0.701-0.235-0.8
			c-0.078,0.312-0.15,0.579-0.22,0.8l-1.58,5.199H208.2z"/>
		<path fill="#FFFFFF" d="M226.804,97.026l0.93-0.075c0.044,0.34,0.146,0.62,0.308,0.841c0.16,0.217,0.412,0.394,0.749,0.529
			c0.34,0.135,0.72,0.202,1.144,0.202c0.379,0,0.708-0.052,0.997-0.153c0.288-0.103,0.504-0.242,0.644-0.421
			c0.141-0.178,0.212-0.373,0.212-0.585c0-0.214-0.07-0.399-0.202-0.56c-0.137-0.16-0.361-0.294-0.672-0.403
			c-0.2-0.071-0.644-0.183-1.327-0.334c-0.687-0.15-1.166-0.291-1.438-0.425c-0.358-0.171-0.62-0.383-0.796-0.636
			c-0.175-0.253-0.263-0.536-0.263-0.851c0-0.343,0.105-0.664,0.32-0.964c0.214-0.299,0.526-0.527,0.934-0.682
			c0.412-0.155,0.867-0.232,1.369-0.232c0.553,0,1.039,0.082,1.461,0.243c0.422,0.164,0.748,0.403,0.974,0.719
			c0.228,0.316,0.351,0.676,0.368,1.075l-0.947,0.066c-0.05-0.431-0.224-0.759-0.515-0.978c-0.294-0.222-0.728-0.331-1.3-0.331
			c-0.597,0-1.031,0.101-1.305,0.3c-0.271,0.201-0.408,0.441-0.408,0.725c0,0.245,0.096,0.446,0.289,0.604
			c0.19,0.157,0.686,0.321,1.488,0.486c0.799,0.166,1.351,0.311,1.649,0.436c0.434,0.184,0.754,0.415,0.961,0.695
			s0.308,0.604,0.308,0.971c0,0.363-0.113,0.705-0.339,1.026c-0.227,0.32-0.554,0.571-0.978,0.75
			c-0.427,0.179-0.906,0.268-1.438,0.268c-0.674,0-1.238-0.092-1.695-0.271c-0.455-0.18-0.813-0.45-1.071-0.813
			C226.953,97.89,226.816,97.481,226.804,97.026z"/>
	</g>
</g>
</svg>
