<?xml version="1.0" encoding="utf-8"?>
<!-- Generator: Adobe Illustrator 16.0.0, SVG Export Plug-In . SVG Version: 6.00 Build 0)  -->
<!DOCTYPE svg PUBLIC "-//W3C//DTD SVG 1.1//EN" "http://www.w3.org/Graphics/SVG/1.1/DTD/svg11.dtd">
<svg version="1.1" id="Layer_1" xmlns="http://www.w3.org/2000/svg" xmlns:xlink="http://www.w3.org/1999/xlink" x="0px" y="0px"
	 width="410px" height="145px" viewBox="0 0 410 145" enable-background="new 0 0 410 145" xml:space="preserve">
<g>
	<rect x="41.305" y="600.842" fill="none" width="239.519" height="29.315"/>
	<text transform="matrix(1 0 0 1 99.335 629.7109)"><tspan x="0" y="0" fill="#FFFFFF" font-family="'Atlanta-BookOblique'" font-size="39" letter-spacing="3">B</tspan><tspan x="25.866" y="0" fill="#FFFFFF" font-family="'Atlanta-BookOblique'" font-size="30" letter-spacing="2">elleza</tspan></text>
</g>
<g>
	<path fill="#FFFFFF" d="M170.795,605.122h1.173v-6.582h-1.173v-1.685h8.749v3.15h-1.89v-1.466h-3.094v2.285h2.492v1.687h-2.492
		v2.61h3.094v-1.48h1.89v3.166h-8.749V605.122z"/>
	<path fill="#FFFFFF" d="M180.226,604.419h1.614c0.014,0.321,0.116,0.528,0.438,0.776c0.279,0.205,0.646,0.293,1.101,0.293
		c0.675,0,1.129-0.264,1.129-0.674c0-1.012-2.623-0.338-4.031-1.745c-0.293-0.292-0.513-0.746-0.513-1.26
		c0-1.188,1.069-2.039,2.564-2.039c0.631,0,1.217,0.119,1.745,0.339v-0.235h1.583v2.009h-1.583c-0.132-0.484-0.631-0.72-1.51-0.72
		c-0.586,0-0.953,0.222-0.953,0.529c0,0.967,4.515,0.044,4.515,2.917c0,1.349-0.938,2.33-2.726,2.33
		c-0.998,0-1.437-0.177-1.759-0.482v0.351h-1.614V604.419z"/>
	<path fill="#FFFFFF" d="M186.347,599.874h0.881v-1.085l2.242-1.583v2.668h1.42v1.599h-1.42v3.004c0,0.602,0.103,0.719,0.572,0.719
		c0.233,0,0.366-0.028,0.672-0.133v1.496c-0.555,0.234-1.112,0.352-1.655,0.352c-0.879,0-1.831-0.426-1.831-1.657v-3.78h-0.881
		V599.874z"/>
	<path fill="#FFFFFF" d="M190.871,599.874h3.342v5.335h0.924v1.599h-4.179v-1.599h1.012v-3.736h-1.099V599.874z"/>
	<path fill="#FFFFFF" d="M195.349,605.209h1.069v-6.756h-1.069v-1.598h3.311v8.354h0.998v1.599h-4.309V605.209z"/>
	<path fill="#FFFFFF" d="M203.417,606.969c-2.052,0-3.636-1.332-3.636-3.636c0-2.434,1.76-3.62,3.636-3.62
		c2.022,0,3.649,1.29,3.649,3.62C207.066,605.517,205.585,606.969,203.417,606.969z M203.417,601.428
		c-0.879,0-1.363,0.704-1.363,1.949c0,1.172,0.514,1.876,1.363,1.876c0.881,0,1.379-0.704,1.379-1.92
		C204.796,602.132,204.298,601.428,203.417,601.428z"/>
	<path fill="#FFFFFF" d="M206.959,605.122h1.483v-6.582h-1.483v-1.685h5.111c1.771,0,2.996,0.336,3.988,1.347
		c0.979,0.998,1.397,2.287,1.397,3.65c0,2.582-1.569,4.955-4.679,4.955h-5.818V605.122z M211.956,605.122
		c1.942,0,2.85-1.274,2.85-3.255c0-2.14-1.036-3.327-2.938-3.327h-0.877v6.582H211.956z"/>
	<path fill="#FFFFFF" d="M218.013,605.122h0.61v-6.582h-1.391v-1.685h8.726v3.062h-1.867v-1.378h-2.927v2.302h2.108v1.685h-2.108
		v2.596h0.623v1.686h-3.774V605.122z"/>
	<path fill="#FFFFFF" d="M194.347,598.038c0,0.673-0.542,1.217-1.216,1.217s-1.202-0.544-1.202-1.217
		c0-0.675,0.528-1.201,1.202-1.201S194.347,597.363,194.347,598.038z"/>
	<g>
		<path fill="#FFFFFF" d="M169.68,606.78v-0.22c0.141,0.003,0.235-0.088,0.235-0.198c0-0.079-0.06-0.144-0.139-0.144
			c-0.236,0-0.204,0.575-0.609,0.575c-0.253,0-0.354-0.19-0.354-0.35c0-0.102,0.04-0.185,0.12-0.237v-0.004h-0.107v-0.218h0.393
			v0.218c-0.117,0.018-0.19,0.088-0.19,0.188c0,0.073,0.045,0.128,0.105,0.128c0.21,0,0.163-0.598,0.62-0.598
			c0.309,0,0.384,0.239,0.384,0.376c0,0.115-0.041,0.202-0.125,0.26v0.004h0.109v0.22H169.68z"/>
		<path fill="#FFFFFF" d="M169.922,604.826c0.145,0.094,0.221,0.248,0.221,0.443c0,0.313-0.176,0.509-0.455,0.509
			c-0.283,0-0.488-0.203-0.488-0.485c0-0.271,0.206-0.488,0.531-0.467v0.662c0.104-0.002,0.227-0.058,0.227-0.223
			c0-0.075-0.025-0.125-0.106-0.209L169.922,604.826z M169.569,605.112c-0.113,0.015-0.182,0.086-0.182,0.19
			c0,0.105,0.059,0.167,0.182,0.186V605.112z"/>
		<path fill="#FFFFFF" d="M169.219,604.722v-0.46h0.075c-0.062-0.104-0.089-0.192-0.089-0.287c0-0.119,0.045-0.22,0.125-0.276
			c-0.087-0.13-0.125-0.231-0.125-0.355c0-0.164,0.069-0.31,0.298-0.31h0.41v-0.179h0.209v0.471h-0.523
			c-0.101,0-0.146,0.036-0.146,0.118c0,0.062,0.021,0.129,0.061,0.204h0.4v-0.163h0.209v0.455h-0.523
			c-0.105,0-0.146,0.034-0.146,0.114c0,0.066,0.018,0.121,0.061,0.208h0.4v-0.163h0.209v0.623h-0.209v-0.169h-0.486v0.169H169.219z"
			/>
		<path fill="#FFFFFF" d="M170.122,601.781v0.437h-0.07c0.059,0.084,0.083,0.157,0.083,0.244c0,0.19-0.12,0.331-0.282,0.331
			c-0.175,0-0.304-0.155-0.304-0.371c0-0.082,0.016-0.131,0.042-0.204h-0.051c-0.094,0-0.158,0.069-0.158,0.172
			c0,0.067,0.021,0.113,0.07,0.165l-0.04,0.231c-0.146-0.071-0.213-0.21-0.213-0.438c0-0.294,0.104-0.422,0.345-0.422h0.369v-0.146
			H170.122z M169.723,602.384c0,0.076,0.049,0.132,0.112,0.132c0.068,0,0.122-0.052,0.122-0.117c0-0.059-0.025-0.104-0.095-0.181
			h-0.074C169.743,602.29,169.723,602.34,169.723,602.384z"/>
		<path fill="#FFFFFF" d="M169.219,601.688v-0.432h0.084c-0.067-0.093-0.098-0.167-0.098-0.259c0-0.12,0.064-0.274,0.308-0.274h0.4
			v-0.132h0.209v0.425h-0.573c-0.072,0-0.1,0.028-0.1,0.083c0,0.05,0.021,0.105,0.057,0.157h0.407v-0.118h0.209v0.55h-0.209v-0.139
			h-0.486v0.139H169.219z"/>
		<path fill="#FFFFFF" d="M170.122,599.477v0.437h-0.07c0.059,0.085,0.083,0.157,0.083,0.245c0,0.188-0.12,0.33-0.282,0.33
			c-0.175,0-0.304-0.154-0.304-0.371c0-0.081,0.016-0.13,0.042-0.204h-0.051c-0.094,0-0.158,0.07-0.158,0.173
			c0,0.066,0.021,0.112,0.07,0.163l-0.04,0.233c-0.146-0.072-0.213-0.21-0.213-0.436c0-0.297,0.104-0.425,0.345-0.425h0.369v-0.146
			H170.122z M169.723,600.08c0,0.076,0.049,0.132,0.112,0.132c0.068,0,0.122-0.052,0.122-0.118c0-0.058-0.025-0.104-0.095-0.181
			h-0.074C169.743,599.984,169.723,600.036,169.723,600.08z"/>
		<path fill="#FFFFFF" d="M170.122,598.766v0.636h-0.209v-0.169h-0.486v0.153h-0.208v-0.414h0.23v-0.005
			c-0.157-0.051-0.244-0.165-0.244-0.312v-0.044h0.274v0.035c0,0.233,0.155,0.296,0.34,0.296h0.094v-0.176H170.122z"/>
		<path fill="#FFFFFF" d="M169.219,598.469v-0.425h0.694v-0.131h0.209v0.556h-0.209v-0.133h-0.486v0.133H169.219z M168.962,598.03
			c0.088,0,0.158,0.07,0.158,0.158s-0.07,0.156-0.158,0.156c-0.089,0-0.156-0.068-0.156-0.156S168.873,598.03,168.962,598.03z"/>
		<path fill="#FFFFFF" d="M170.143,597.329c0,0.268-0.173,0.473-0.473,0.473c-0.318,0-0.471-0.228-0.471-0.473
			c0-0.263,0.168-0.474,0.471-0.474C169.954,596.855,170.143,597.047,170.143,597.329z M169.422,597.329
			c0,0.115,0.091,0.178,0.253,0.178c0.154,0,0.245-0.067,0.245-0.178c0-0.114-0.091-0.179-0.25-0.179
			C169.513,597.15,169.422,597.215,169.422,597.329z"/>
	</g>
</g>
<g>
	<path fill="#FFFFFF" d="M133.963,70.687h3.19V52.784h-3.19v-4.582h23.797v8.569h-5.141v-3.987h-8.415V59h6.779v4.588h-6.779v7.099
		h8.415V66.66h5.141v8.611h-23.797V70.687z"/>
	<path fill="#FFFFFF" d="M159.614,68.774h4.39c0.038,0.875,0.316,1.438,1.19,2.112c0.76,0.557,1.758,0.797,2.994,0.797
		c1.835,0,3.07-0.717,3.07-1.833c0-2.751-7.134-0.918-10.964-4.746c-0.798-0.795-1.395-2.03-1.395-3.426
		c0-3.231,2.908-5.546,6.975-5.546c1.716,0,3.31,0.324,4.746,0.922v-0.64h4.306v5.463h-4.306c-0.358-1.317-1.715-1.957-4.106-1.957
		c-1.593,0-2.592,0.602-2.592,1.438c0,2.63,12.279,0.12,12.279,7.934c0,3.668-2.552,6.338-7.413,6.338
		c-2.715,0-3.908-0.48-4.784-1.312v0.953h-4.39V68.774z"/>
	<path fill="#FFFFFF" d="M176.262,56.413h2.396v-2.951l6.098-4.306v7.257h3.863v4.348h-3.863v8.17c0,1.635,0.28,1.955,1.558,1.955
		c0.635,0,0.996-0.078,1.827-0.361v4.07c-1.508,0.637-3.024,0.956-4.501,0.956c-2.391,0-4.98-1.158-4.98-4.508V60.761h-2.396V56.413
		z"/>
	<path fill="#FFFFFF" d="M188.568,56.413h9.089v14.51h2.513v4.348h-11.365v-4.348h2.751V60.761h-2.988V56.413z"/>
	<path fill="#FFFFFF" d="M200.747,70.923h2.908V52.549h-2.908v-4.346h9.004v22.721h2.715v4.348h-11.719V70.923z"/>
	<path fill="#FFFFFF" d="M222.692,75.71c-5.581,0-9.89-3.623-9.89-9.889c0-6.619,4.787-9.846,9.89-9.846
		c5.501,0,9.925,3.508,9.925,9.846C232.617,71.76,228.588,75.71,222.692,75.71z M222.692,60.639c-2.392,0-3.708,1.915-3.708,5.301
		c0,3.188,1.396,5.103,3.708,5.103c2.395,0,3.75-1.915,3.75-5.222C226.442,62.554,225.087,60.639,222.692,60.639z"/>
	<path fill="#FFFFFF" d="M232.325,70.687h4.035V52.784h-4.035v-4.582h13.903c4.814,0,8.148,0.914,10.847,3.663
		c2.661,2.715,3.801,6.221,3.801,9.929c0,7.022-4.269,13.477-12.726,13.477h-15.825V70.687z M245.917,70.687
		c5.283,0,7.75-3.466,7.75-8.853c0-5.819-2.817-9.05-7.989-9.05h-2.385v17.902H245.917z"/>
	<path fill="#FFFFFF" d="M262.391,70.687h1.659V52.784h-3.781v-4.582H284v8.329h-5.078v-3.748h-7.961v6.261h5.735v4.582h-5.735v7.06
		h1.695v4.585h-10.266V70.687z"/>
	<path fill="#FFFFFF" d="M198.022,51.42c0,1.83-1.475,3.309-3.308,3.309s-3.27-1.479-3.27-3.309c0-1.836,1.437-3.268,3.27-3.268
		S198.022,49.583,198.022,51.42z"/>
	<g>
		<path fill="#FFFFFF" d="M130.93,75.196V74.6c0.382,0.008,0.64-0.239,0.64-0.539c0-0.215-0.162-0.391-0.377-0.391
			c-0.643,0-0.555,1.564-1.657,1.564c-0.688,0-0.962-0.518-0.962-0.951c0-0.276,0.109-0.502,0.327-0.645v-0.012h-0.292v-0.592h1.068
			v0.592c-0.318,0.048-0.518,0.239-0.518,0.51c0,0.199,0.122,0.349,0.287,0.349c0.571,0,0.444-1.626,1.687-1.626
			c0.84,0,1.044,0.65,1.044,1.022c0,0.314-0.112,0.551-0.34,0.707V74.6h0.297v0.597H130.93z"/>
		<path fill="#FFFFFF" d="M131.589,69.882c0.393,0.255,0.601,0.675,0.601,1.207c0,0.852-0.479,1.383-1.238,1.383
			c-0.771,0-1.329-0.552-1.329-1.32c0-0.736,0.562-1.328,1.445-1.27v1.801c0.282-0.005,0.617-0.157,0.617-0.605
			c0-0.205-0.069-0.34-0.29-0.568L131.589,69.882z M130.629,70.661c-0.308,0.04-0.494,0.233-0.494,0.518
			c0,0.287,0.16,0.454,0.494,0.504V70.661z"/>
		<path fill="#FFFFFF" d="M129.676,69.598v-1.251h0.205c-0.168-0.285-0.242-0.523-0.242-0.781c0-0.325,0.122-0.598,0.339-0.752
			c-0.236-0.353-0.339-0.63-0.339-0.966c0-0.447,0.188-0.843,0.809-0.843h1.116V64.52h0.568v1.28h-1.424
			c-0.273,0-0.398,0.099-0.398,0.321c0,0.17,0.059,0.35,0.165,0.555h1.089v-0.444h0.568v1.238h-1.424
			c-0.287,0-0.398,0.092-0.398,0.31c0,0.181,0.048,0.33,0.165,0.566h1.089v-0.443h0.568v1.694h-0.568v-0.459h-1.323v0.459H129.676z"
			/>
		<path fill="#FFFFFF" d="M132.133,61.6v1.188h-0.191c0.159,0.228,0.226,0.428,0.226,0.664c0,0.518-0.327,0.901-0.768,0.901
			c-0.475,0-0.826-0.423-0.826-1.01c0-0.223,0.043-0.355,0.115-0.555h-0.139c-0.254,0-0.43,0.189-0.43,0.468
			c0,0.183,0.059,0.308,0.191,0.449l-0.109,0.629c-0.398-0.194-0.579-0.571-0.579-1.19c0-0.8,0.282-1.147,0.938-1.147h1.004V61.6
			H132.133z M131.047,63.239c0,0.207,0.132,0.358,0.306,0.358c0.186,0,0.332-0.141,0.332-0.318c0-0.16-0.069-0.282-0.258-0.492
			h-0.202C131.103,62.984,131.047,63.12,131.047,63.239z"/>
		<path fill="#FFFFFF" d="M129.676,61.346v-1.174h0.228c-0.183-0.252-0.265-0.454-0.265-0.704c0-0.327,0.174-0.746,0.836-0.746
			h1.089v-0.358h0.568v1.155h-1.56c-0.196,0-0.271,0.077-0.271,0.226c0,0.136,0.057,0.287,0.154,0.428h1.108V59.85h0.568v1.496
			h-0.568v-0.377h-1.323v0.377H129.676z"/>
		<path fill="#FFFFFF" d="M132.133,55.332v1.188h-0.191c0.159,0.231,0.226,0.428,0.226,0.667c0,0.513-0.327,0.897-0.768,0.897
			c-0.475,0-0.826-0.419-0.826-1.009c0-0.221,0.043-0.353,0.115-0.555h-0.139c-0.254,0-0.43,0.191-0.43,0.47
			c0,0.181,0.059,0.306,0.191,0.443l-0.109,0.635c-0.398-0.196-0.579-0.571-0.579-1.185c0-0.807,0.282-1.155,0.938-1.155h1.004
			v-0.396H132.133z M131.047,56.973c0,0.207,0.132,0.358,0.306,0.358c0.186,0,0.332-0.141,0.332-0.321
			c0-0.157-0.069-0.282-0.258-0.491h-0.202C131.103,56.713,131.047,56.854,131.047,56.973z"/>
		<path fill="#FFFFFF" d="M132.133,53.398v1.73h-0.568v-0.46h-1.323v0.417h-0.565v-1.125h0.626v-0.014
			c-0.427-0.138-0.663-0.449-0.663-0.85v-0.12h0.746v0.096c0,0.635,0.422,0.805,0.924,0.805h0.255v-0.478H132.133z"/>
		<path fill="#FFFFFF" d="M129.676,52.591v-1.155h1.889v-0.356h0.568v1.512h-0.568v-0.362h-1.323v0.362H129.676z M128.978,51.398
			c0.239,0,0.431,0.191,0.431,0.431c0,0.239-0.191,0.425-0.431,0.425c-0.242,0-0.425-0.186-0.425-0.425
			C128.553,51.589,128.736,51.398,128.978,51.398z"/>
		<path fill="#FFFFFF" d="M132.189,49.491c0,0.728-0.471,1.285-1.286,1.285c-0.866,0-1.281-0.619-1.281-1.285
			c0-0.715,0.458-1.289,1.281-1.289C131.676,48.203,132.189,48.723,132.189,49.491z M130.229,49.491
			c0,0.313,0.247,0.483,0.688,0.483c0.42,0,0.667-0.184,0.667-0.483c0-0.311-0.247-0.487-0.68-0.487
			C130.476,49.004,130.229,49.18,130.229,49.491z"/>
	</g>
</g>
<g>
	<path fill="#FFFFFF" d="M165.787,88.695v0.55h-8.746V97.8h-0.981V79.488h11.467v0.548h-10.485v8.659H165.787z"/>
	<path fill="#FFFFFF" d="M171.9,79.488V97.8h-0.982V79.488H171.9z"/>
	<path fill="#FFFFFF" d="M181.493,97.8V80.036h-6.827v-0.548h14.635v0.548h-6.827V97.8H181.493z"/>
	<path fill="#FFFFFF" d="M193.094,97.8h-0.937V79.488h1.383l10.976,17.134V79.488h0.937V97.8h-1.204l-11.155-17.476V97.8z"/>
	<path fill="#FFFFFF" d="M219.196,88.251v0.523h-9.191v8.476h10.932v0.55h-11.913V79.488h11.913v0.548h-10.932v8.215H219.196z"/>
	<path fill="#FFFFFF" d="M237.357,83.908v0.341h-0.981v-0.367c0-2.171-1.383-4.002-5.444-4.002c-4.104,0-5.487,1.805-5.487,3.976
		c0,4.684,11.957,4.552,11.957,9.522c0,2.538-1.784,4.552-6.559,4.552c-4.729,0-6.515-2.014-6.515-4.552v-0.89h0.938v0.916
		c0,2.224,1.473,3.977,5.577,3.977s5.577-1.753,5.577-3.977c0-4.63-11.957-4.474-11.957-9.522c0-2.668,1.918-4.499,6.425-4.525
		C235.617,79.356,237.357,81.397,237.357,83.908z"/>
	<path fill="#FFFFFF" d="M253.822,83.908v0.341h-0.981v-0.367c0-2.171-1.383-4.002-5.444-4.002c-4.104,0-5.487,1.805-5.487,3.976
		c0,4.684,11.958,4.552,11.958,9.522c0,2.538-1.785,4.552-6.56,4.552c-4.729,0-6.515-2.014-6.515-4.552v-0.89h0.938v0.916
		c0,2.224,1.473,3.977,5.577,3.977c4.105,0,5.577-1.753,5.577-3.977c0-4.63-11.957-4.474-11.957-9.522
		c0-2.668,1.918-4.499,6.425-4.525C252.082,79.356,253.822,81.397,253.822,83.908z"/>
</g>
</svg>
