<?xml version="1.0" encoding="utf-8"?>
<!-- Generator: Adobe Illustrator 16.0.0, SVG Export Plug-In . SVG Version: 6.00 Build 0)  -->
<!DOCTYPE svg PUBLIC "-//W3C//DTD SVG 1.1//EN" "http://www.w3.org/Graphics/SVG/1.1/DTD/svg11.dtd">
<svg version="1.1" id="Layer_1" xmlns="http://www.w3.org/2000/svg" xmlns:xlink="http://www.w3.org/1999/xlink" x="0px" y="0px"
	 width="332.358px" height="58.672px" viewBox="-12.358 0 332.358 58.672" enable-background="new -12.358 0 332.358 58.672"
	 xml:space="preserve">
<path fill="#FFFFFF" d="M0,47.957h6.803V9.778H0V0h50.764v18.279H39.796V9.778H21.854v13.264h14.455v9.781H21.854v15.135h17.941
	V39.37h10.968v18.366H0V47.957z"/>
<path fill="#FFFFFF" d="M54.719,43.879h9.354c0.085,1.87,0.68,3.061,2.55,4.506c1.615,1.19,3.742,1.704,6.378,1.704
	c3.91,0,6.549-1.534,6.549-3.915c0-5.871-15.223-1.959-23.385-10.119c-1.701-1.701-2.975-4.339-2.975-7.317
	c0-6.883,6.205-11.82,14.879-11.82c3.658,0,7.059,0.685,10.12,1.959v-1.361h9.182v11.649h-9.182
	c-0.767-2.809-3.656-4.169-8.757-4.169c-3.404,0-5.53,1.281-5.53,3.065c0,5.612,26.191,0.252,26.191,16.921
	c0,7.824-5.444,13.521-15.816,13.521c-5.784,0-8.333-1.021-10.204-2.806v2.039h-9.354V43.879z"/>
<path fill="#FFFFFF" d="M90.227,17.515h5.101v-6.294l13.012-9.182v15.476h8.238v9.272h-8.238v17.428c0,3.485,0.595,4.17,3.316,4.17
	c1.36,0,2.126-0.171,3.912-0.764v8.671c-3.232,1.356-6.463,2.041-9.61,2.041c-5.104,0-10.63-2.467-10.63-9.612V26.787h-5.101V17.515
	z"/>
<path fill="#FFFFFF" d="M116.471,17.515h19.38v30.952h5.363v9.27h-24.239v-9.27h5.868v-21.68h-6.372V17.515z"/>
<path fill="#FFFFFF" d="M142.444,48.467h6.202v-39.2h-6.202V0h19.207v48.467h5.783v9.27h-24.99V48.467z"/>
<path fill="#FFFFFF" d="M189.246,58.672c-11.902,0-21.086-7.738-21.086-21.087c0-14.117,10.199-21.003,21.086-21.003
	c11.734,0,21.173,7.481,21.173,21.003C210.419,50.255,201.833,58.672,189.246,58.672z M189.246,26.53
	c-5.102,0-7.907,4.081-7.907,11.309c0,6.808,2.976,10.882,7.907,10.882c5.104,0,7.994-4.074,7.994-11.136
	C197.24,30.611,194.35,26.53,189.246,26.53z"/>
<path fill="#F16522" d="M209.796,47.957h8.603V9.778h-8.603V0h29.649c10.271,0,17.373,1.958,23.135,7.82
	c5.682,5.783,8.1,13.267,8.1,21.175c0,14.969-9.104,28.741-27.142,28.741h-33.742V47.957L209.796,47.957z M238.773,47.957
	c11.277,0,16.543-7.395,16.543-18.876c0-12.417-6.016-19.303-17.041-19.303h-5.094v38.179H238.773z"/>
<path fill="#F16522" d="M273.93,47.957h3.528V9.778h-8.076V0H320v17.772h-10.819V9.778h-16.981V23.13h12.232v9.776h-12.232v15.051
	h3.607v9.779H273.93V47.957z"/>
<path fill="#F16522" d="M136.113,6.865c0,3.912-3.143,7.056-7.055,7.056c-3.913,0-6.974-3.145-6.974-7.056
	c0-3.912,3.061-6.974,6.974-6.974C132.97-0.109,136.113,2.953,136.113,6.865z"/>
<g>
	<path fill="#F16522" d="M-7.245,58.028v-1.285c0.818,0.022,1.375-0.507,1.375-1.156c0-0.465-0.355-0.841-0.813-0.841
		c-1.383,0-1.193,3.359-3.571,3.359c-1.471,0-2.059-1.105-2.059-2.043c0-0.587,0.235-1.071,0.7-1.386v-0.018h-0.624v-1.273h2.295
		v1.273c-0.689,0.102-1.113,0.513-1.113,1.092c0,0.435,0.261,0.748,0.614,0.748c1.227,0,0.951-3.491,3.621-3.491
		c1.81,0,2.254,1.396,2.254,2.199c0,0.666-0.245,1.178-0.733,1.516v0.021h0.636v1.285H-7.245z"/>
	<path fill="#F16522" d="M-5.834,46.615c0.848,0.545,1.294,1.441,1.294,2.59c0,1.829-1.03,2.973-2.67,2.973
		c-1.649,0-2.851-1.189-2.851-2.842c0-1.58,1.211-2.856,3.108-2.721v3.864c0.605-0.018,1.319-0.338,1.319-1.299
		c0-0.444-0.144-0.736-0.612-1.228L-5.834,46.615z M-7.889,48.28c-0.667,0.088-1.066,0.501-1.066,1.112
		c0,0.615,0.341,0.981,1.066,1.087V48.28z"/>
	<path fill="#F16522" d="M-9.942,45.99v-2.688h0.437c-0.358-0.609-0.515-1.123-0.515-1.673c0-0.7,0.256-1.283,0.728-1.614
		c-0.513-0.76-0.728-1.353-0.728-2.085c0-0.958,0.399-1.809,1.745-1.809h2.395v-1.05h1.217v2.757h-3.066
		c-0.582,0-0.849,0.212-0.849,0.69c0,0.367,0.124,0.755,0.353,1.195h2.345v-0.949h1.217v2.656h-3.066
		c-0.604,0-0.849,0.197-0.849,0.674c0,0.384,0.1,0.705,0.353,1.207h2.345v-0.943h1.217v3.631H-5.88v-0.981h-2.844v0.981H-9.942z"/>
	<path fill="#F16522" d="M-4.664,28.805v2.555h-0.413c0.342,0.49,0.491,0.916,0.491,1.428c0,1.106-0.7,1.93-1.654,1.93
		c-1.024,0-1.771-0.901-1.771-2.167c0-0.478,0.088-0.767,0.237-1.19h-0.293c-0.548,0-0.925,0.401-0.925,1.004
		c0,0.393,0.124,0.656,0.413,0.96l-0.237,1.358c-0.854-0.42-1.245-1.229-1.245-2.558c0-1.723,0.608-2.472,2.014-2.472h2.166v-0.848
		H-4.664z M-6.994,32.327c0,0.449,0.278,0.774,0.655,0.774c0.402,0,0.706-0.303,0.706-0.693c0-0.336-0.144-0.601-0.548-1.049h-0.433
		C-6.881,31.774-6.994,32.072-6.994,32.327z"/>
	<path fill="#F16522" d="M-9.942,28.256v-2.519h0.49c-0.4-0.549-0.567-0.98-0.567-1.519c0-0.699,0.377-1.604,1.794-1.604h2.345
		v-0.768h1.217v2.478h-3.347c-0.425,0-0.587,0.173-0.587,0.489c0,0.291,0.119,0.612,0.339,0.924h2.378v-0.703h1.217v3.221H-5.88
		v-0.814h-2.844v0.814H-9.942z"/>
	<path fill="#F16522" d="M-4.664,15.333v2.554h-0.413c0.342,0.491,0.491,0.916,0.491,1.428c0,1.101-0.7,1.931-1.654,1.931
		c-1.024,0-1.771-0.909-1.771-2.168c0-0.479,0.088-0.766,0.237-1.191h-0.293c-0.548,0-0.925,0.403-0.925,1.002
		c0,0.391,0.124,0.659,0.413,0.959l-0.237,1.361c-0.854-0.424-1.245-1.228-1.245-2.552c0-1.732,0.608-2.479,2.014-2.479h2.166
		v-0.846H-4.664z M-6.994,18.858c0,0.447,0.278,0.768,0.655,0.768c0.402,0,0.706-0.302,0.706-0.691c0-0.336-0.144-0.602-0.548-1.047
		h-0.433C-6.881,18.301-6.994,18.599-6.994,18.858z"/>
	<path fill="#F16522" d="M-4.664,11.173v3.713H-5.88v-0.983h-2.844v0.893h-1.217v-2.419h1.344v-0.019
		c-0.92-0.312-1.421-0.973-1.421-1.841v-0.251h1.596v0.204c0,1.362,0.915,1.731,1.987,1.731h0.557v-1.027H-4.664z"/>
	<path fill="#F16522" d="M-9.942,9.435V6.957h4.062V6.188h1.217v3.247H-5.88V8.663h-2.844v0.772H-9.942z M-11.444,6.869
		c0.513,0,0.923,0.413,0.923,0.925c0,0.516-0.411,0.916-0.923,0.916c-0.518,0-0.914-0.4-0.914-0.916
		C-12.358,7.282-11.962,6.869-11.444,6.869z"/>
	<path fill="#F16522" d="M-4.54,2.774c0,1.564-1.016,2.767-2.766,2.767c-1.857,0-2.755-1.334-2.755-2.767
		C-10.061,1.237-9.08,0-7.306,0C-5.645,0-4.54,1.124-4.54,2.774z M-8.758,2.774c0,0.672,0.532,1.039,1.482,1.039
		c0.896,0,1.428-0.395,1.428-1.039c0-0.667-0.532-1.048-1.458-1.048C-8.226,1.727-8.758,2.108-8.758,2.774z"/>
</g>
</svg>
