<?xml version="1.0" encoding="utf-8"?>
<!-- Generator: Adobe Illustrator 16.0.0, SVG Export Plug-In . SVG Version: 6.00 Build 0)  -->
<!DOCTYPE svg PUBLIC "-//W3C//DTD SVG 1.1//EN" "http://www.w3.org/Graphics/SVG/1.1/DTD/svg11.dtd">
<svg version="1.1" id="Layer_1" xmlns="http://www.w3.org/2000/svg" xmlns:xlink="http://www.w3.org/1999/xlink" x="0px" y="0px"
	 width="410px" height="145px" viewBox="0 0 410 145" enable-background="new 0 0 410 145" xml:space="preserve">
<g>
	<path fill="#FFFFFF" d="M226.463,62.304h1.811V52.14h-1.811v-2.602h13.51v4.865h-2.918V52.14h-4.777v3.528h3.848v2.605h-3.848v4.03
		h4.777v-2.287h2.918v4.889h-13.51V62.304z"/>
	<path fill="#FFFFFF" d="M241.025,61.218h2.491c0.021,0.497,0.181,0.815,0.677,1.199c0.432,0.317,0.997,0.453,1.699,0.453
		c1.042,0,1.743-0.407,1.743-1.041c0-1.562-4.052-0.522-6.226-2.695c-0.452-0.451-0.791-1.153-0.791-1.946
		c0-1.833,1.651-3.148,3.96-3.148c0.974,0,1.88,0.183,2.694,0.522V54.2h2.443v3.102h-2.443c-0.204-0.749-0.974-1.111-2.331-1.111
		c-0.905,0-1.472,0.341-1.472,0.817c0,1.493,6.971,0.067,6.971,4.504c0,2.082-1.449,3.598-4.209,3.598
		c-1.54,0-2.218-0.272-2.716-0.745v0.541h-2.491V61.218z"/>
	<path fill="#FFFFFF" d="M250.477,54.2h1.36v-1.675l3.463-2.444v4.12h2.191v2.469H255.3v4.639c0,0.928,0.157,1.11,0.882,1.11
		c0.36,0,0.566-0.045,1.039-0.205v2.31c-0.857,0.362-1.718,0.543-2.557,0.543c-1.357,0-2.827-0.658-2.827-2.559v-5.837h-1.36V54.2z"
		/>
	<path fill="#FFFFFF" d="M257.462,54.2h5.161v8.239h1.428v2.467h-6.454v-2.467h1.562v-5.77h-1.697V54.2z"/>
	<path fill="#FFFFFF" d="M264.377,62.438h1.65V52.005h-1.65v-2.467h5.111v12.9h1.541v2.467h-6.652V62.438z"/>
	<path fill="#FFFFFF" d="M276.836,65.155c-3.168,0-5.614-2.057-5.614-5.614c0-3.758,2.717-5.591,5.614-5.591
		c3.122,0,5.634,1.993,5.634,5.591C282.47,62.914,280.183,65.155,276.836,65.155z M276.836,56.6c-1.358,0-2.105,1.087-2.105,3.01
		c0,1.809,0.793,2.896,2.105,2.896c1.359,0,2.128-1.087,2.128-2.964C278.964,57.687,278.195,56.6,276.836,56.6z"/>
	<path fill="#FFFFFF" d="M282.306,62.304h2.29V52.14h-2.29v-2.602h7.891c2.734,0,4.626,0.52,6.16,2.081
		c1.51,1.54,2.157,3.531,2.157,5.637c0,3.985-2.424,7.65-7.226,7.65h-8.982V62.304z M290.02,62.304c3,0,4.401-1.969,4.401-5.025
		c0-3.304-1.6-5.138-4.535-5.138h-1.355v10.164H290.02z"/>
	<path fill="#FFFFFF" d="M299.373,62.304h0.943V52.14h-2.149v-2.602h13.475v4.729h-2.883V52.14h-4.52v3.555h3.256v2.601h-3.256
		v4.008h0.961v2.602h-5.827V62.304z"/>
	<path fill="#FFFFFF" d="M262.829,51.364c0,1.041-0.836,1.879-1.877,1.879c-1.04,0-1.857-0.839-1.857-1.879s0.817-1.855,1.857-1.855
		C261.993,49.509,262.829,50.324,262.829,51.364z"/>
	<g>
		<path fill="#FFFFFF" d="M224.741,64.864v-0.34c0.217,0.005,0.363-0.134,0.363-0.305c0-0.122-0.093-0.222-0.215-0.222
			c-0.365,0-0.315,0.888-0.941,0.888c-0.391,0-0.545-0.293-0.545-0.539c0-0.157,0.061-0.286,0.186-0.368v-0.005h-0.167v-0.336h0.607
			v0.336c-0.182,0.026-0.295,0.136-0.295,0.29c0,0.113,0.07,0.196,0.162,0.196c0.324,0,0.252-0.922,0.958-0.922
			c0.478,0,0.594,0.369,0.594,0.581c0,0.177-0.063,0.312-0.193,0.4v0.006h0.168v0.34H224.741z"/>
		<path fill="#FFFFFF" d="M225.114,61.848c0.225,0.144,0.341,0.383,0.341,0.685c0,0.483-0.271,0.785-0.703,0.785
			c-0.438,0-0.754-0.314-0.754-0.75c0-0.417,0.319-0.754,0.82-0.72v1.022c0.16-0.003,0.35-0.089,0.35-0.344
			c0-0.117-0.039-0.193-0.163-0.323L225.114,61.848z M224.57,62.289c-0.175,0.023-0.28,0.132-0.28,0.294s0.091,0.258,0.28,0.287
			V62.289z"/>
		<path fill="#FFFFFF" d="M224.029,61.686v-0.711h0.116c-0.095-0.161-0.138-0.296-0.138-0.442c0-0.185,0.069-0.339,0.191-0.427
			c-0.133-0.202-0.191-0.357-0.191-0.55c0-0.253,0.106-0.477,0.46-0.477h0.633v-0.277h0.322v0.727h-0.808
			c-0.156,0-0.226,0.056-0.226,0.184c0,0.096,0.032,0.198,0.094,0.315h0.617v-0.252h0.322v0.702h-0.808
			c-0.162,0-0.226,0.053-0.226,0.177c0,0.102,0.026,0.187,0.094,0.32h0.617v-0.252h0.322v0.963h-0.322v-0.261h-0.751v0.261H224.029z
			"/>
		<path fill="#FFFFFF" d="M225.423,57.145v0.674h-0.108c0.092,0.13,0.129,0.244,0.129,0.377c0,0.294-0.187,0.511-0.437,0.511
			c-0.27,0-0.468-0.24-0.468-0.573c0-0.126,0.023-0.203,0.064-0.315h-0.079c-0.144,0-0.243,0.107-0.243,0.266
			c0,0.104,0.032,0.175,0.108,0.254l-0.062,0.358c-0.227-0.11-0.329-0.324-0.329-0.676c0-0.454,0.16-0.652,0.532-0.652h0.57v-0.224
			H225.423z M224.808,58.075c0,0.119,0.074,0.205,0.173,0.205c0.105,0,0.188-0.08,0.188-0.182c0-0.089-0.039-0.159-0.146-0.278
			h-0.114C224.839,57.93,224.808,58.008,224.808,58.075z"/>
		<path fill="#FFFFFF" d="M224.029,57v-0.666h0.129c-0.104-0.143-0.15-0.258-0.15-0.4c0-0.186,0.101-0.424,0.476-0.424h0.617v-0.203
			h0.322v0.656h-0.884c-0.112,0-0.154,0.043-0.154,0.128c0,0.077,0.031,0.162,0.087,0.243h0.629v-0.183h0.322V57h-0.322v-0.215
			h-0.751V57H224.029z"/>
		<path fill="#FFFFFF" d="M225.423,53.586v0.674h-0.108c0.092,0.131,0.129,0.242,0.129,0.378c0,0.291-0.187,0.51-0.437,0.51
			c-0.27,0-0.468-0.238-0.468-0.573c0-0.125,0.023-0.201,0.064-0.314h-0.079c-0.144,0-0.243,0.107-0.243,0.267
			c0,0.102,0.032,0.173,0.108,0.251l-0.062,0.361c-0.227-0.112-0.329-0.326-0.329-0.674c0-0.457,0.16-0.656,0.532-0.656h0.57v-0.224
			H225.423z M224.808,54.518c0,0.119,0.074,0.204,0.173,0.204c0.105,0,0.188-0.079,0.188-0.182c0-0.089-0.039-0.16-0.146-0.278
			h-0.114C224.839,54.371,224.808,54.45,224.808,54.518z"/>
		<path fill="#FFFFFF" d="M225.423,52.488v0.982h-0.322V53.21h-0.751v0.235h-0.32v-0.638h0.355v-0.008
			c-0.243-0.079-0.377-0.255-0.377-0.483v-0.067h0.423v0.054c0,0.36,0.241,0.458,0.524,0.458h0.146v-0.271H225.423z"/>
		<path fill="#FFFFFF" d="M224.029,52.03v-0.656h1.071v-0.203h0.322v0.859h-0.322v-0.206h-0.751v0.206H224.029z M223.632,51.354
			c0.135,0,0.244,0.108,0.244,0.243c0,0.136-0.109,0.242-0.244,0.242c-0.137,0-0.241-0.106-0.241-0.242
			C223.391,51.462,223.495,51.354,223.632,51.354z"/>
		<path fill="#FFFFFF" d="M225.455,50.27c0,0.414-0.267,0.731-0.73,0.731c-0.491,0-0.727-0.352-0.727-0.731
			c0-0.405,0.259-0.732,0.727-0.732C225.163,49.538,225.455,49.835,225.455,50.27z M224.343,50.27c0,0.179,0.141,0.274,0.391,0.274
			c0.238,0,0.378-0.103,0.378-0.274c0-0.176-0.14-0.276-0.387-0.276C224.483,49.994,224.343,50.094,224.343,50.27z"/>
	</g>
</g>
<g>
	<path fill="#FFFFFF" d="M234.188,88.687h0.093l3.467-21.319h7.168v30.026h-4.873V75.861h-0.094l-3.465,21.532h-4.873l-3.748-21.232
		h-0.095v21.232h-4.496V67.367h7.167L234.188,88.687z"/>
	<path fill="#FFFFFF" d="M265.341,97.394h-5.2l-0.891-5.447h-6.322l-0.89,5.447h-4.733l5.248-30.026h7.542L265.341,97.394z
		 M253.582,87.872h4.968l-2.437-15.186h-0.095L253.582,87.872z"/>
	<path fill="#FFFFFF" d="M274.478,85.428l-1.591,2.745v9.221h-5.154V67.367h5.154v12.997h0.091l6.655-12.997h5.152l-7.168,13.385
		l7.168,16.642h-5.292L274.478,85.428z"/>
	<path fill="#FFFFFF" d="M287.129,67.367h5.154v30.026h-5.154V67.367z"/>
	<path fill="#FFFFFF" d="M300.714,75.646h-0.094v21.747h-4.638V67.367h6.465l5.2,17.975h0.094V67.367h4.591v30.026h-5.294
		L300.714,75.646z"/>
	<path fill="#FFFFFF" d="M323.765,80.666h7.216v9.521c0,4.805-2.624,7.551-7.684,7.551c-5.062,0-7.685-2.746-7.685-7.551V74.573
		c0-4.803,2.623-7.548,7.685-7.548c5.06,0,7.684,2.745,7.684,7.548v2.919h-4.874v-3.22c0-2.145-1.029-2.958-2.669-2.958
		c-1.641,0-2.671,0.813-2.671,2.958v16.215c0,2.146,1.03,2.917,2.671,2.917c1.64,0,2.669-0.771,2.669-2.917v-5.534h-2.342V80.666z"
		/>
	<path fill="#FFFFFF" d="M341.146,74.573c0-4.803,2.765-7.548,7.824-7.548s7.824,2.745,7.824,7.548v15.614
		c0,4.805-2.765,7.551-7.824,7.551s-7.824-2.746-7.824-7.551V74.573z M346.302,90.487c0,2.146,1.031,2.961,2.669,2.961
		c1.641,0,2.671-0.815,2.671-2.961V74.272c0-2.145-1.03-2.958-2.671-2.958c-1.638,0-2.669,0.813-2.669,2.958V90.487z"/>
	<path fill="#FFFFFF" d="M365.277,80.707h6.65v4.29h-6.65v12.396h-5.154V67.367h13.632v4.29h-8.478V80.707z"/>
</g>
<g>
	<path fill="#FFFFFF" d="M226.463,62.304h1.811V52.14h-1.811v-2.602h13.51v4.865h-2.918V52.14h-4.777v3.528h3.848v2.605h-3.848v4.03
		h4.777v-2.287h2.918v4.889h-13.51V62.304z"/>
	<path fill="#FFFFFF" d="M241.025,61.218h2.491c0.021,0.497,0.181,0.815,0.677,1.199c0.432,0.317,0.997,0.453,1.699,0.453
		c1.042,0,1.743-0.407,1.743-1.041c0-1.562-4.052-0.522-6.226-2.695c-0.452-0.451-0.791-1.153-0.791-1.946
		c0-1.833,1.651-3.148,3.96-3.148c0.974,0,1.88,0.183,2.694,0.522V54.2h2.443v3.102h-2.443c-0.204-0.749-0.974-1.111-2.331-1.111
		c-0.905,0-1.472,0.341-1.472,0.817c0,1.493,6.971,0.067,6.971,4.504c0,2.082-1.449,3.598-4.209,3.598
		c-1.54,0-2.218-0.272-2.716-0.745v0.541h-2.491V61.218z"/>
	<path fill="#FFFFFF" d="M250.477,54.2h1.36v-1.675l3.463-2.444v4.12h2.191v2.469H255.3v4.639c0,0.928,0.157,1.11,0.882,1.11
		c0.36,0,0.566-0.045,1.039-0.205v2.31c-0.857,0.362-1.718,0.543-2.557,0.543c-1.357,0-2.827-0.658-2.827-2.559v-5.837h-1.36V54.2z"
		/>
	<path fill="#FFFFFF" d="M257.462,54.2h5.161v8.239h1.428v2.467h-6.454v-2.467h1.562v-5.77h-1.697V54.2z"/>
	<path fill="#FFFFFF" d="M264.377,62.438h1.65V52.005h-1.65v-2.467h5.111v12.9h1.541v2.467h-6.652V62.438z"/>
	<path fill="#FFFFFF" d="M276.836,65.155c-3.168,0-5.614-2.057-5.614-5.614c0-3.758,2.717-5.591,5.614-5.591
		c3.122,0,5.634,1.993,5.634,5.591C282.47,62.914,280.183,65.155,276.836,65.155z M276.836,56.6c-1.358,0-2.105,1.087-2.105,3.01
		c0,1.809,0.793,2.896,2.105,2.896c1.359,0,2.128-1.087,2.128-2.964C278.964,57.687,278.195,56.6,276.836,56.6z"/>
	<path fill="#FFFFFF" d="M282.306,62.304h2.29V52.14h-2.29v-2.602h7.891c2.734,0,4.626,0.52,6.16,2.081
		c1.51,1.54,2.157,3.531,2.157,5.637c0,3.985-2.424,7.65-7.226,7.65h-8.982V62.304z M290.02,62.304c3,0,4.401-1.969,4.401-5.025
		c0-3.304-1.6-5.138-4.535-5.138h-1.355v10.164H290.02z"/>
	<path fill="#FFFFFF" d="M299.373,62.304h0.943V52.14h-2.149v-2.602h13.475v4.729h-2.883V52.14h-4.52v3.555h3.256v2.601h-3.256
		v4.008h0.961v2.602h-5.827V62.304z"/>
	<path fill="#FFFFFF" d="M262.829,51.364c0,1.041-0.836,1.879-1.877,1.879c-1.04,0-1.857-0.839-1.857-1.879s0.817-1.855,1.857-1.855
		C261.993,49.509,262.829,50.324,262.829,51.364z"/>
	<g>
		<path fill="#FFFFFF" d="M224.741,64.864v-0.34c0.217,0.005,0.363-0.134,0.363-0.305c0-0.122-0.093-0.222-0.215-0.222
			c-0.365,0-0.315,0.888-0.941,0.888c-0.391,0-0.545-0.293-0.545-0.539c0-0.157,0.061-0.286,0.186-0.368v-0.005h-0.167v-0.336h0.607
			v0.336c-0.182,0.026-0.295,0.136-0.295,0.29c0,0.113,0.07,0.196,0.162,0.196c0.324,0,0.252-0.922,0.958-0.922
			c0.478,0,0.594,0.369,0.594,0.581c0,0.177-0.063,0.312-0.193,0.4v0.006h0.168v0.34H224.741z"/>
		<path fill="#FFFFFF" d="M225.114,61.848c0.225,0.144,0.341,0.383,0.341,0.685c0,0.483-0.271,0.785-0.703,0.785
			c-0.438,0-0.754-0.314-0.754-0.75c0-0.417,0.319-0.754,0.82-0.72v1.022c0.16-0.003,0.35-0.089,0.35-0.344
			c0-0.117-0.039-0.193-0.163-0.323L225.114,61.848z M224.57,62.289c-0.175,0.023-0.28,0.132-0.28,0.294s0.091,0.258,0.28,0.287
			V62.289z"/>
		<path fill="#FFFFFF" d="M224.029,61.686v-0.711h0.116c-0.095-0.161-0.138-0.296-0.138-0.442c0-0.185,0.069-0.339,0.191-0.427
			c-0.133-0.202-0.191-0.357-0.191-0.55c0-0.253,0.106-0.477,0.46-0.477h0.633v-0.277h0.322v0.727h-0.808
			c-0.156,0-0.226,0.056-0.226,0.184c0,0.096,0.032,0.198,0.094,0.315h0.617v-0.252h0.322v0.702h-0.808
			c-0.162,0-0.226,0.053-0.226,0.177c0,0.102,0.026,0.187,0.094,0.32h0.617v-0.252h0.322v0.963h-0.322v-0.261h-0.751v0.261H224.029z
			"/>
		<path fill="#FFFFFF" d="M225.423,57.145v0.674h-0.108c0.092,0.13,0.129,0.244,0.129,0.377c0,0.294-0.187,0.511-0.437,0.511
			c-0.27,0-0.468-0.24-0.468-0.573c0-0.126,0.023-0.203,0.064-0.315h-0.079c-0.144,0-0.243,0.107-0.243,0.266
			c0,0.104,0.032,0.175,0.108,0.254l-0.062,0.358c-0.227-0.11-0.329-0.324-0.329-0.676c0-0.454,0.16-0.652,0.532-0.652h0.57v-0.224
			H225.423z M224.808,58.075c0,0.119,0.074,0.205,0.173,0.205c0.105,0,0.188-0.08,0.188-0.182c0-0.089-0.039-0.159-0.146-0.278
			h-0.114C224.839,57.93,224.808,58.008,224.808,58.075z"/>
		<path fill="#FFFFFF" d="M224.029,57v-0.666h0.129c-0.104-0.143-0.15-0.258-0.15-0.4c0-0.186,0.101-0.424,0.476-0.424h0.617v-0.203
			h0.322v0.656h-0.884c-0.112,0-0.154,0.043-0.154,0.128c0,0.077,0.031,0.162,0.087,0.243h0.629v-0.183h0.322V57h-0.322v-0.215
			h-0.751V57H224.029z"/>
		<path fill="#FFFFFF" d="M225.423,53.586v0.674h-0.108c0.092,0.131,0.129,0.242,0.129,0.378c0,0.291-0.187,0.51-0.437,0.51
			c-0.27,0-0.468-0.238-0.468-0.573c0-0.125,0.023-0.201,0.064-0.314h-0.079c-0.144,0-0.243,0.107-0.243,0.267
			c0,0.102,0.032,0.173,0.108,0.251l-0.062,0.361c-0.227-0.112-0.329-0.326-0.329-0.674c0-0.457,0.16-0.656,0.532-0.656h0.57v-0.224
			H225.423z M224.808,54.518c0,0.119,0.074,0.204,0.173,0.204c0.105,0,0.188-0.079,0.188-0.182c0-0.089-0.039-0.16-0.146-0.278
			h-0.114C224.839,54.371,224.808,54.45,224.808,54.518z"/>
		<path fill="#FFFFFF" d="M225.423,52.488v0.982h-0.322V53.21h-0.751v0.235h-0.32v-0.638h0.355v-0.008
			c-0.243-0.079-0.377-0.255-0.377-0.483v-0.067h0.423v0.054c0,0.36,0.241,0.458,0.524,0.458h0.146v-0.271H225.423z"/>
		<path fill="#FFFFFF" d="M224.029,52.03v-0.656h1.071v-0.203h0.322v0.859h-0.322v-0.206h-0.751v0.206H224.029z M223.632,51.354
			c0.135,0,0.244,0.108,0.244,0.243c0,0.136-0.109,0.242-0.244,0.242c-0.137,0-0.241-0.106-0.241-0.242
			C223.391,51.462,223.495,51.354,223.632,51.354z"/>
		<path fill="#FFFFFF" d="M225.455,50.27c0,0.414-0.267,0.731-0.73,0.731c-0.491,0-0.727-0.352-0.727-0.731
			c0-0.405,0.259-0.732,0.727-0.732C225.163,49.538,225.455,49.835,225.455,50.27z M224.343,50.27c0,0.179,0.141,0.274,0.391,0.274
			c0.238,0,0.378-0.103,0.378-0.274c0-0.176-0.14-0.276-0.387-0.276C224.483,49.994,224.343,50.094,224.343,50.27z"/>
	</g>
</g>
<g>
	<path fill="#FFFFFF" d="M234.188,88.687h0.093l3.467-21.319h7.168v30.026h-4.873V75.861h-0.094l-3.465,21.532h-4.873l-3.748-21.232
		h-0.095v21.232h-4.496V67.367h7.167L234.188,88.687z"/>
	<path fill="#FFFFFF" d="M265.341,97.394h-5.2l-0.891-5.447h-6.322l-0.89,5.447h-4.733l5.248-30.026h7.542L265.341,97.394z
		 M253.582,87.872h4.968l-2.437-15.186h-0.095L253.582,87.872z"/>
	<path fill="#FFFFFF" d="M274.478,85.428l-1.591,2.745v9.221h-5.154V67.367h5.154v12.997h0.091l6.655-12.997h5.152l-7.168,13.385
		l7.168,16.642h-5.292L274.478,85.428z"/>
	<path fill="#FFFFFF" d="M287.129,67.367h5.154v30.026h-5.154V67.367z"/>
	<path fill="#FFFFFF" d="M300.714,75.646h-0.094v21.747h-4.638V67.367h6.465l5.2,17.975h0.094V67.367h4.591v30.026h-5.294
		L300.714,75.646z"/>
	<path fill="#FFFFFF" d="M323.765,80.666h7.216v9.521c0,4.805-2.624,7.551-7.684,7.551c-5.062,0-7.685-2.746-7.685-7.551V74.573
		c0-4.803,2.623-7.548,7.685-7.548c5.06,0,7.684,2.745,7.684,7.548v2.919h-4.874v-3.22c0-2.145-1.029-2.958-2.669-2.958
		c-1.641,0-2.671,0.813-2.671,2.958v16.215c0,2.146,1.03,2.917,2.671,2.917c1.64,0,2.669-0.771,2.669-2.917v-5.534h-2.342V80.666z"
		/>
	<path fill="#FFFFFF" d="M341.146,74.573c0-4.803,2.765-7.548,7.824-7.548s7.824,2.745,7.824,7.548v15.614
		c0,4.805-2.765,7.551-7.824,7.551s-7.824-2.746-7.824-7.551V74.573z M346.302,90.487c0,2.146,1.031,2.961,2.669,2.961
		c1.641,0,2.671-0.815,2.671-2.961V74.272c0-2.145-1.03-2.958-2.671-2.958c-1.638,0-2.669,0.813-2.669,2.958V90.487z"/>
	<path fill="#FFFFFF" d="M365.277,80.707h6.65v4.29h-6.65v12.396h-5.154V67.367h13.632v4.29h-8.478V80.707z"/>
</g>
</svg>
