<?xml version="1.0" encoding="utf-8"?>
<!-- Generator: Adobe Illustrator 16.0.0, SVG Export Plug-In . SVG Version: 6.00 Build 0)  -->
<!DOCTYPE svg PUBLIC "-//W3C//DTD SVG 1.1//EN" "http://www.w3.org/Graphics/SVG/1.1/DTD/svg11.dtd">
<svg version="1.1" id="Layer_1" xmlns="http://www.w3.org/2000/svg" xmlns:xlink="http://www.w3.org/1999/xlink" x="0px" y="0px"
	 width="410px" height="145px" viewBox="0 0 410 145" enable-background="new 0 0 410 145" xml:space="preserve">
<g>
	<rect x="41.305" y="600.842" fill="none" width="239.519" height="29.315"/>
	
		<text transform="matrix(1 0 0 1 99.335 629.7109)" fill="#FFFFFF" font-family="'Atlanta-BookOblique'" font-size="39" letter-spacing="2">B</text>
	
		<text transform="matrix(1 0 0 1 125.2012 629.7109)" fill="#FFFFFF" font-family="'Atlanta-BookOblique'" font-size="30" letter-spacing="1">elleza</text>
</g>
<g>
	<path fill="#FFFFFF" d="M170.795,605.122h1.173v-6.582h-1.173v-1.685h8.749v3.149h-1.89v-1.466h-3.094v2.285h2.492v1.687h-2.492
		v2.61h3.094v-1.48h1.89v3.166h-8.749V605.122z"/>
	<path fill="#FFFFFF" d="M180.226,604.419h1.614c0.014,0.321,0.116,0.528,0.438,0.776c0.279,0.205,0.646,0.293,1.101,0.293
		c0.675,0,1.129-0.265,1.129-0.674c0-1.013-2.623-0.339-4.031-1.745c-0.293-0.292-0.513-0.746-0.513-1.261
		c0-1.188,1.069-2.039,2.564-2.039c0.631,0,1.217,0.119,1.745,0.34v-0.235h1.583v2.009h-1.583c-0.132-0.483-0.631-0.72-1.51-0.72
		c-0.586,0-0.953,0.222-0.953,0.529c0,0.967,4.515,0.044,4.515,2.917c0,1.349-0.938,2.33-2.726,2.33
		c-0.998,0-1.437-0.178-1.759-0.482v0.351h-1.614V604.419L180.226,604.419z"/>
	<path fill="#FFFFFF" d="M186.347,599.874h0.881v-1.085l2.242-1.583v2.668h1.42v1.599h-1.42v3.004c0,0.603,0.103,0.72,0.572,0.72
		c0.233,0,0.366-0.028,0.672-0.133v1.495c-0.555,0.234-1.112,0.353-1.655,0.353c-0.879,0-1.831-0.426-1.831-1.657v-3.78h-0.881
		V599.874L186.347,599.874z"/>
	<path fill="#FFFFFF" d="M190.871,599.874h3.342v5.335h0.924v1.599h-4.179v-1.599h1.012v-3.736h-1.099V599.874L190.871,599.874z"/>
	<path fill="#FFFFFF" d="M195.349,605.209h1.069v-6.756h-1.069v-1.598h3.311v8.354h0.998v1.599h-4.309V605.209z"/>
	<path fill="#FFFFFF" d="M203.417,606.969c-2.052,0-3.636-1.332-3.636-3.636c0-2.434,1.76-3.62,3.636-3.62
		c2.022,0,3.649,1.29,3.649,3.62C207.066,605.517,205.585,606.969,203.417,606.969z M203.417,601.428
		c-0.879,0-1.363,0.704-1.363,1.949c0,1.172,0.514,1.876,1.363,1.876c0.881,0,1.379-0.704,1.379-1.92
		C204.796,602.132,204.298,601.428,203.417,601.428z"/>
	<path fill="#FFFFFF" d="M206.959,605.122h1.482v-6.582h-1.482v-1.685h5.111c1.771,0,2.996,0.336,3.988,1.347
		c0.979,0.998,1.396,2.287,1.396,3.649c0,2.582-1.568,4.955-4.68,4.955h-5.817L206.959,605.122L206.959,605.122z M211.956,605.122
		c1.942,0,2.851-1.274,2.851-3.255c0-2.141-1.037-3.327-2.938-3.327h-0.877v6.582H211.956L211.956,605.122z"/>
	<path fill="#FFFFFF" d="M218.014,605.122h0.609v-6.582h-1.391v-1.685h8.726v3.062h-1.867v-1.378h-2.927v2.302h2.107v1.686h-2.107
		v2.596h0.623v1.686h-3.773V605.122L218.014,605.122z"/>
	<path fill="#FFFFFF" d="M194.347,598.038c0,0.673-0.542,1.217-1.216,1.217c-0.674,0-1.202-0.544-1.202-1.217
		c0-0.675,0.528-1.201,1.202-1.201C193.805,596.837,194.347,597.363,194.347,598.038z"/>
	<g>
		<path fill="#FFFFFF" d="M169.68,606.78v-0.22c0.141,0.003,0.235-0.089,0.235-0.198c0-0.079-0.06-0.145-0.139-0.145
			c-0.236,0-0.204,0.575-0.609,0.575c-0.253,0-0.354-0.189-0.354-0.35c0-0.103,0.04-0.186,0.12-0.237v-0.004h-0.107v-0.218h0.393
			v0.218c-0.117,0.018-0.19,0.088-0.19,0.188c0,0.073,0.045,0.128,0.105,0.128c0.21,0,0.163-0.598,0.62-0.598
			c0.309,0,0.384,0.239,0.384,0.376c0,0.115-0.041,0.202-0.125,0.26v0.005h0.109v0.22H169.68z"/>
		<path fill="#FFFFFF" d="M169.922,604.826c0.145,0.094,0.221,0.248,0.221,0.442c0,0.313-0.176,0.51-0.455,0.51
			c-0.283,0-0.488-0.203-0.488-0.485c0-0.271,0.206-0.488,0.531-0.467v0.662c0.104-0.002,0.227-0.059,0.227-0.224
			c0-0.075-0.025-0.125-0.106-0.209L169.922,604.826z M169.569,605.112c-0.113,0.015-0.182,0.086-0.182,0.189
			c0,0.105,0.059,0.167,0.182,0.187V605.112z"/>
		<path fill="#FFFFFF" d="M169.219,604.722v-0.46h0.075c-0.062-0.104-0.089-0.191-0.089-0.287c0-0.119,0.045-0.22,0.125-0.275
			c-0.087-0.13-0.125-0.231-0.125-0.355c0-0.164,0.069-0.31,0.298-0.31h0.41v-0.179h0.209v0.471h-0.523
			c-0.101,0-0.146,0.036-0.146,0.118c0,0.062,0.021,0.129,0.061,0.204h0.4v-0.163h0.209v0.454H169.6
			c-0.105,0-0.146,0.034-0.146,0.114c0,0.066,0.018,0.121,0.061,0.208h0.4v-0.163h0.209v0.623h-0.209v-0.169h-0.486v0.169H169.219
			L169.219,604.722z"/>
		<path fill="#FFFFFF" d="M170.122,601.781v0.437h-0.07c0.059,0.084,0.083,0.157,0.083,0.244c0,0.19-0.12,0.331-0.282,0.331
			c-0.175,0-0.304-0.155-0.304-0.371c0-0.082,0.016-0.131,0.042-0.204h-0.051c-0.094,0-0.158,0.069-0.158,0.172
			c0,0.067,0.021,0.113,0.07,0.165l-0.04,0.231c-0.146-0.071-0.213-0.21-0.213-0.438c0-0.294,0.104-0.422,0.345-0.422h0.369v-0.146
			L170.122,601.781L170.122,601.781z M169.723,602.384c0,0.076,0.049,0.132,0.112,0.132c0.068,0,0.122-0.052,0.122-0.116
			c0-0.06-0.025-0.104-0.095-0.182h-0.074C169.743,602.29,169.723,602.34,169.723,602.384z"/>
		<path fill="#FFFFFF" d="M169.219,601.688v-0.432h0.084c-0.067-0.093-0.098-0.167-0.098-0.259c0-0.12,0.064-0.274,0.308-0.274h0.4
			v-0.132h0.209v0.425h-0.573c-0.072,0-0.1,0.028-0.1,0.083c0,0.051,0.021,0.105,0.057,0.157h0.407v-0.118h0.209v0.55h-0.209v-0.139
			h-0.486v0.139H169.219z"/>
		<path fill="#FFFFFF" d="M170.122,599.477v0.438h-0.07c0.059,0.085,0.083,0.157,0.083,0.245c0,0.188-0.12,0.33-0.282,0.33
			c-0.175,0-0.304-0.154-0.304-0.371c0-0.081,0.016-0.13,0.042-0.204h-0.051c-0.094,0-0.158,0.07-0.158,0.173
			c0,0.066,0.021,0.112,0.07,0.163l-0.04,0.233c-0.146-0.072-0.213-0.21-0.213-0.437c0-0.297,0.104-0.425,0.345-0.425h0.369v-0.146
			H170.122L170.122,599.477z M169.723,600.08c0,0.076,0.049,0.132,0.112,0.132c0.068,0,0.122-0.052,0.122-0.118
			c0-0.058-0.025-0.104-0.095-0.181h-0.074C169.743,599.984,169.723,600.036,169.723,600.08z"/>
		<path fill="#FFFFFF" d="M170.122,598.766v0.637h-0.209v-0.169h-0.486v0.152h-0.208v-0.414h0.23v-0.005
			c-0.157-0.051-0.244-0.165-0.244-0.312v-0.044h0.274v0.034c0,0.233,0.155,0.297,0.34,0.297h0.094v-0.177H170.122L170.122,598.766z
			"/>
		<path fill="#FFFFFF" d="M169.219,598.469v-0.425h0.694v-0.131h0.209v0.556h-0.209v-0.133h-0.486v0.133H169.219L169.219,598.469z
			 M168.962,598.03c0.088,0,0.158,0.069,0.158,0.158c0,0.088-0.07,0.155-0.158,0.155c-0.089,0-0.156-0.067-0.156-0.155
			C168.806,598.1,168.873,598.03,168.962,598.03z"/>
		<path fill="#FFFFFF" d="M170.143,597.329c0,0.268-0.173,0.473-0.473,0.473c-0.318,0-0.471-0.228-0.471-0.473
			c0-0.263,0.168-0.474,0.471-0.474C169.954,596.855,170.143,597.047,170.143,597.329z M169.422,597.329
			c0,0.115,0.091,0.178,0.253,0.178c0.154,0,0.245-0.067,0.245-0.178c0-0.114-0.091-0.179-0.25-0.179
			C169.513,597.15,169.422,597.215,169.422,597.329z"/>
	</g>
</g>
<g>
	<path fill="#FFFFFF" d="M118.784,69.246h3.627V48.891h-3.627v-5.206h27.056v9.742h-5.844v-4.536h-9.566v7.067h7.707v5.218h-7.707
		v8.07h9.566v-4.577h5.844v9.79h-27.056V69.246z"/>
	<path fill="#FFFFFF" d="M147.947,67.073h4.991c0.044,0.992,0.36,1.633,1.353,2.4c0.864,0.633,1.999,0.907,3.405,0.907
		c2.086,0,3.49-0.815,3.49-2.085c0-3.128-8.111-1.046-12.465-5.396c-0.908-0.904-1.586-2.31-1.586-3.896
		c0-3.674,3.306-6.308,7.929-6.308c1.952,0,3.763,0.369,5.396,1.049V53.02h4.896v6.21h-4.896c-0.408-1.497-1.95-2.227-4.669-2.227
		c-1.811,0-2.946,0.686-2.946,1.636c0,2.992,13.961,0.139,13.961,9.022c0,4.169-2.902,7.205-8.429,7.205
		c-3.086,0-4.442-0.546-5.439-1.491v1.084h-4.991V67.073z"/>
	<path fill="#FFFFFF" d="M166.875,53.02h2.725v-3.357l6.933-4.894v8.251h4.392v4.943h-4.392v9.287c0,1.86,0.318,2.224,1.771,2.224
		c0.722,0,1.132-0.089,2.077-0.41v4.627c-1.715,0.724-3.439,1.087-5.118,1.087c-2.719,0-5.663-1.316-5.663-5.126V57.963h-2.725
		V53.02z"/>
	<path fill="#FFFFFF" d="M180.867,53.02h10.333v16.496h2.857v4.943h-12.922v-4.943h3.128V57.963h-3.397V53.02z"/>
	<path fill="#FFFFFF" d="M194.714,69.516h3.306V48.625h-3.306v-4.94h10.237v25.831h3.085v4.943h-13.322V69.516z"/>
	<path fill="#FFFFFF" d="M219.664,74.958c-6.346,0-11.244-4.12-11.244-11.242c0-7.527,5.442-11.195,11.244-11.195
		c6.255,0,11.284,3.989,11.284,11.195C230.948,70.467,226.368,74.958,219.664,74.958z M219.664,57.824
		c-2.72,0-4.217,2.176-4.217,6.027c0,3.623,1.589,5.8,4.217,5.8c2.723,0,4.264-2.177,4.264-5.936
		C223.928,60,222.387,57.824,219.664,57.824z"/>
	<path fill="#FFFFFF" d="M230.616,69.246h4.588V48.891h-4.588v-5.206h15.808c5.473,0,9.265,1.037,12.332,4.164
		c3.026,3.086,4.32,7.072,4.32,11.287c0,7.984-4.853,15.323-14.468,15.323h-17.992V69.246z M246.069,69.246
		c6.008,0,8.811-3.939,8.811-10.063c0-6.618-3.202-10.292-9.083-10.292h-2.711v20.355H246.069z"/>
	<path fill="#FFFFFF" d="M264.8,69.246h1.885V48.891h-4.298v-5.206h26.981v9.468h-5.774v-4.262h-9.05v7.12h6.521v5.209h-6.521v8.026
		h1.928v5.213H264.8V69.246z"/>
	<path fill="#FFFFFF" d="M191.615,47.341c0,2.08-1.677,3.763-3.76,3.763c-2.084,0-3.718-1.683-3.718-3.763
		c0-2.087,1.634-3.715,3.718-3.715C189.938,43.626,191.615,45.254,191.615,47.341z"/>
	<g>
		<path fill="#FFFFFF" d="M115.336,74.373v-0.677c0.435,0.008,0.728-0.274,0.728-0.612c0-0.247-0.184-0.446-0.429-0.446
			c-0.731,0-0.631,1.779-1.884,1.779c-0.782,0-1.094-0.588-1.094-1.081c0-0.313,0.125-0.571,0.372-0.734V72.59h-0.333v-0.674h1.214
			v0.674c-0.362,0.053-0.589,0.271-0.589,0.58c0,0.227,0.139,0.396,0.327,0.396c0.648,0,0.504-1.85,1.918-1.85
			c0.954,0,1.187,0.74,1.187,1.161c0,0.358-0.127,0.627-0.386,0.805v0.014h0.338v0.677H115.336z"/>
		<path fill="#FFFFFF" d="M116.085,68.332c0.446,0.291,0.682,0.768,0.682,1.372c0,0.968-0.543,1.572-1.408,1.572
			c-0.876,0-1.51-0.627-1.51-1.5c0-0.838,0.638-1.512,1.643-1.444v2.049c0.32-0.006,0.702-0.181,0.702-0.69
			c0-0.233-0.079-0.386-0.33-0.646L116.085,68.332z M114.994,69.216c-0.351,0.047-0.562,0.267-0.562,0.591s0.182,0.516,0.562,0.574
			V69.216z"/>
		<path fill="#FFFFFF" d="M113.91,68.01v-1.422h0.233c-0.191-0.324-0.274-0.597-0.274-0.89c0-0.369,0.138-0.68,0.386-0.854
			c-0.269-0.402-0.386-0.715-0.386-1.098c0-0.508,0.213-0.959,0.919-0.959h1.269v-0.552h0.647v1.455h-1.619
			c-0.311,0-0.454,0.111-0.454,0.366c0,0.194,0.067,0.396,0.188,0.629h1.238v-0.504h0.647v1.408h-1.619
			c-0.327,0-0.454,0.105-0.454,0.352c0,0.205,0.056,0.377,0.188,0.646h1.238v-0.505h0.647v1.927h-0.647v-0.523h-1.504v0.523H113.91z
			"/>
		<path fill="#FFFFFF" d="M116.704,58.916v1.351h-0.218c0.18,0.258,0.257,0.485,0.257,0.754c0,0.591-0.373,1.023-0.874,1.023
			c-0.54,0-0.939-0.479-0.939-1.148c0-0.252,0.049-0.401,0.13-0.629h-0.157c-0.289,0-0.489,0.213-0.489,0.529
			c0,0.208,0.066,0.353,0.217,0.513l-0.124,0.716c-0.453-0.222-0.658-0.648-0.658-1.354c0-0.909,0.32-1.306,1.067-1.306h1.141
			v-0.449H116.704z M115.468,60.779c0,0.235,0.15,0.407,0.348,0.407c0.211,0,0.377-0.16,0.377-0.362
			c0-0.181-0.079-0.319-0.294-0.558h-0.229C115.531,60.488,115.468,60.644,115.468,60.779z"/>
		<path fill="#FFFFFF" d="M113.91,58.625v-1.333h0.259c-0.208-0.289-0.301-0.516-0.301-0.802c0-0.371,0.198-0.849,0.951-0.849h1.238
			v-0.407h0.647v1.314h-1.774c-0.223,0-0.308,0.086-0.308,0.258c0,0.152,0.065,0.324,0.176,0.485h1.259v-0.366h0.647v1.699h-0.647
			v-0.427h-1.504v0.427H113.91z"/>
		<path fill="#FFFFFF" d="M116.704,51.788v1.351h-0.218c0.18,0.264,0.257,0.487,0.257,0.757c0,0.585-0.373,1.022-0.874,1.022
			c-0.54,0-0.939-0.477-0.939-1.147c0-0.252,0.049-0.402,0.13-0.632h-0.157c-0.289,0-0.489,0.219-0.489,0.535
			c0,0.205,0.066,0.347,0.217,0.504l-0.124,0.722c-0.453-0.225-0.658-0.649-0.658-1.348c0-0.918,0.32-1.312,1.067-1.312h1.141
			v-0.452H116.704z M115.468,53.654c0,0.235,0.15,0.407,0.348,0.407c0.211,0,0.377-0.158,0.377-0.366
			c0-0.177-0.079-0.318-0.294-0.557h-0.229C115.531,53.36,115.468,53.519,115.468,53.654z"/>
		<path fill="#FFFFFF" d="M116.704,49.59v1.969h-0.647v-0.524h-1.504v0.475h-0.643v-1.281h0.712v-0.014
			c-0.485-0.158-0.753-0.511-0.753-0.968V49.11h0.848v0.107c0,0.722,0.48,0.915,1.05,0.915h0.29V49.59H116.704z"/>
		<path fill="#FFFFFF" d="M113.91,48.672V47.36h2.147v-0.407h0.647v1.719h-0.647v-0.41h-1.504v0.41H113.91z M113.115,47.316
			c0.272,0,0.49,0.216,0.49,0.49c0,0.27-0.218,0.482-0.49,0.482c-0.275,0-0.482-0.213-0.482-0.482
			C112.633,47.532,112.84,47.316,113.115,47.316z"/>
		<path fill="#FFFFFF" d="M116.767,45.148c0,0.826-0.535,1.461-1.461,1.461c-0.985,0-1.457-0.704-1.457-1.461
			c0-0.812,0.52-1.464,1.457-1.464C116.184,43.685,116.767,44.275,116.767,45.148z M114.539,45.148c0,0.357,0.281,0.549,0.781,0.549
			c0.478,0,0.759-0.208,0.759-0.549c0-0.353-0.281-0.555-0.772-0.555C114.819,44.594,114.539,44.796,114.539,45.148z"/>
	</g>
</g>
<g>
	<path fill="#FFFFFF" d="M149.508,103.053h-9.439V81.592h7.746h0.056h0.111c1.333,0,2.499,0.241,3.498,0.723
		c0.314,0.148,0.638,0.347,0.972,0.596c0.333,0.251,0.634,0.566,0.902,0.944c0.268,0.38,0.486,0.833,0.652,1.361
		c0.167,0.526,0.25,1.143,0.25,1.845c0,0.611-0.069,1.148-0.208,1.611c-0.139,0.463-0.319,0.875-0.542,1.235
		c-0.222,0.36-0.477,0.671-0.763,0.93c-0.288,0.26-0.579,0.481-0.875,0.667c0.851,0.259,1.583,0.609,2.193,1.055
		c1.407,1.073,2.11,2.545,2.11,4.414c0,0.926-0.166,1.759-0.5,2.498c-0.333,0.76-0.814,1.407-1.443,1.943
		c-0.593,0.538-1.296,0.944-2.111,1.223C151.303,102.914,150.433,103.053,149.508,103.053z M141.457,91.059h7.135
		c0.037,0,0.281-0.031,0.735-0.097c0.453-0.063,0.948-0.227,1.485-0.485c1.37-0.667,2.054-1.805,2.054-3.416
		c0-0.888-0.171-1.6-0.514-2.137c-0.342-0.537-0.764-0.948-1.264-1.235c-0.5-0.287-1.031-0.478-1.596-0.57
		c-0.565-0.091-1.069-0.139-1.513-0.139h-0.111h-0.056h-6.357V91.059z M141.457,101.665h8.051c0.777,0,1.49-0.116,2.138-0.348
		c0.647-0.23,1.203-0.555,1.666-0.973c0.462-0.415,0.823-0.91,1.083-1.484s0.389-1.203,0.389-1.888c0-1.388-0.519-2.49-1.555-3.304
		c-0.537-0.407-1.199-0.713-1.985-0.916c-0.787-0.204-1.67-0.305-2.651-0.305h-7.135V101.665z"/>
	<path fill="#FFFFFF" d="M161.862,82.979v8.107h10.105v1.389h-10.105v9.189h10.383v1.388h-11.771V81.592h11.771v1.388H161.862z"/>
	<path fill="#FFFFFF" d="M177.408,103.053V81.592h1.389v20.073h10.716v1.388H177.408z"/>
	<path fill="#FFFFFF" d="M193.51,103.053V81.592h1.388v20.073h10.716v1.388H193.51z"/>
	<path fill="#FFFFFF" d="M211,82.979v8.107h10.105v1.389H211v9.189h10.383v1.388h-11.771V81.592h11.771v1.388H211z"/>
	<path fill="#FFFFFF" d="M225.797,103.053l13.882-20.073h-12.077v-1.388h14.714l-13.882,20.073h12.604v1.388H225.797z"/>
	<path fill="#FFFFFF" d="M263.886,103.357l-3.748-8.301h-9.716l-3.748,8.301l-1.249-0.582l9.854-21.795l9.884,21.795
		L263.886,103.357z M251.06,93.669h8.439l-4.22-9.328L251.06,93.669z"/>
</g>
</svg>
