<?xml version="1.0" encoding="utf-8"?>
<!-- Generator: Adobe Illustrator 16.0.0, SVG Export Plug-In . SVG Version: 6.00 Build 0)  -->
<!DOCTYPE svg PUBLIC "-//W3C//DTD SVG 1.1//EN" "http://www.w3.org/Graphics/SVG/1.1/DTD/svg11.dtd">
<svg version="1.1" id="Layer_1" xmlns="http://www.w3.org/2000/svg" xmlns:xlink="http://www.w3.org/1999/xlink" x="0px" y="0px"
	 width="410px" height="145px" viewBox="0 0 410 145" enable-background="new 0 0 410 145" xml:space="preserve">
<g>
	<path fill="#FFFFFF" d="M107.123,56.465h2.404v-13.5h-2.404V39.51h17.943v6.461h-3.876v-3.006h-6.345v4.687h5.112v3.459h-5.112
		v5.354h6.345v-3.037h3.876v6.493h-17.943V56.465z"/>
	<path fill="#FFFFFF" d="M126.464,55.023h3.31c0.028,0.659,0.238,1.083,0.897,1.593c0.573,0.421,1.325,0.601,2.257,0.601
		c1.384,0,2.315-0.541,2.315-1.382c0-2.075-5.38-0.692-8.268-3.579c-0.601-0.6-1.052-1.531-1.052-2.585
		c0-2.434,2.194-4.181,5.261-4.181c1.293,0,2.495,0.243,3.578,0.693v-0.481h3.246v4.12h-3.246c-0.271-0.994-1.293-1.476-3.097-1.476
		c-1.202,0-1.954,0.453-1.954,1.084c0,1.984,9.258,0.09,9.258,5.983c0,2.766-1.924,4.779-5.591,4.779
		c-2.046,0-2.946-0.363-3.606-0.99v0.719h-3.31V55.023z"/>
	<path fill="#FFFFFF" d="M139.018,45.702h1.807v-2.226l4.598-3.246v5.472h2.911v3.278h-2.911v6.162c0,1.231,0.21,1.474,1.172,1.474
		c0.479,0,0.752-0.06,1.379-0.273v3.068c-1.137,0.48-2.282,0.721-3.395,0.721c-1.803,0-3.755-0.873-3.755-3.398V48.98h-1.807V45.702
		z"/>
	<path fill="#FFFFFF" d="M148.296,45.702h6.854v10.942h1.896v3.277h-8.571v-3.277h2.075V48.98h-2.254V45.702z"/>
	<path fill="#FFFFFF" d="M157.48,56.644h2.192V42.787h-2.192V39.51h6.789v17.134h2.047v3.277h-8.836V56.644z"/>
	<path fill="#FFFFFF" d="M174.028,60.252c-4.208,0-7.457-2.732-7.457-7.457c0-4.991,3.608-7.425,7.457-7.425
		c4.146,0,7.483,2.646,7.483,7.425C181.511,57.275,178.474,60.252,174.028,60.252z M174.028,48.889
		c-1.804,0-2.797,1.444-2.797,3.997c0,2.403,1.053,3.847,2.797,3.847c1.805,0,2.827-1.443,2.827-3.938
		C176.854,50.333,175.833,48.889,174.028,48.889z"/>
	<path fill="#FFFFFF" d="M181.292,56.465h3.042v-13.5h-3.042V39.51h10.482c3.631,0,6.144,0.69,8.18,2.764
		c2.005,2.045,2.865,4.689,2.865,7.486c0,5.294-3.219,10.161-9.596,10.161h-11.931V56.465z M191.539,56.465
		c3.984,0,5.846-2.615,5.846-6.676c0-4.388-2.125-6.824-6.024-6.824h-1.8v13.5H191.539z"/>
	<path fill="#FFFFFF" d="M203.962,56.465h1.252v-13.5h-2.853V39.51h17.895v6.28h-3.828v-2.825h-6.003v4.722h4.324v3.454h-4.324
		v5.324h1.277v3.456h-7.74V56.465z"/>
	<path fill="#FFFFFF" d="M155.425,41.936c0,1.381-1.111,2.495-2.494,2.495c-1.381,0-2.466-1.114-2.466-2.495
		c0-1.383,1.084-2.464,2.466-2.464C154.314,39.472,155.425,40.553,155.425,41.936z"/>
	<g>
		<path fill="#FFFFFF" d="M104.836,59.865v-0.45c0.288,0.006,0.482-0.18,0.482-0.406c0-0.162-0.123-0.295-0.285-0.295
			c-0.485,0-0.419,1.18-1.25,1.18c-0.519,0-0.724-0.39-0.724-0.716c0-0.209,0.082-0.379,0.247-0.488v-0.007h-0.222v-0.447h0.807
			v0.447c-0.242,0.035-0.391,0.181-0.391,0.385c0,0.15,0.093,0.261,0.215,0.261c0.431,0,0.335-1.225,1.272-1.225
			c0.634,0,0.788,0.49,0.788,0.771c0,0.235-0.084,0.414-0.256,0.531v0.009h0.223v0.45H104.836z"/>
		<path fill="#FFFFFF" d="M105.331,55.859c0.298,0.192,0.454,0.509,0.454,0.909c0,0.643-0.361,1.043-0.934,1.043
			c-0.581,0-1.002-0.417-1.002-0.995c0-0.555,0.424-1.002,1.09-0.957v1.357c0.212-0.005,0.465-0.119,0.465-0.457
			c0-0.155-0.053-0.256-0.219-0.429L105.331,55.859z M104.609,56.445c-0.232,0.03-0.373,0.176-0.373,0.391
			c0,0.216,0.121,0.343,0.373,0.381V56.445z"/>
		<path fill="#FFFFFF" d="M103.891,55.644V54.7h0.154c-0.125-0.214-0.182-0.395-0.182-0.588c0-0.245,0.091-0.45,0.255-0.566
			c-0.177-0.269-0.255-0.476-0.255-0.73c0-0.336,0.141-0.634,0.611-0.634h0.841v-0.368h0.427v0.966h-1.073
			c-0.207,0-0.3,0.074-0.3,0.243c0,0.128,0.043,0.264,0.124,0.419h0.821v-0.334h0.427v0.932h-1.073c-0.215,0-0.3,0.071-0.3,0.235
			c0,0.136,0.035,0.249,0.124,0.426h0.821v-0.335h0.427v1.279h-0.427v-0.347h-0.998v0.347H103.891z"/>
		<path fill="#FFFFFF" d="M105.742,49.613v0.896h-0.144c0.121,0.173,0.171,0.323,0.171,0.5c0,0.392-0.247,0.68-0.58,0.68
			c-0.358,0-0.621-0.318-0.621-0.761c0-0.169,0.031-0.27,0.084-0.419h-0.104c-0.19,0-0.323,0.143-0.323,0.353
			c0,0.138,0.043,0.232,0.144,0.338l-0.083,0.476c-0.299-0.146-0.437-0.431-0.437-0.897c0-0.603,0.214-0.866,0.707-0.866h0.758
			v-0.298H105.742z M104.924,50.848c0,0.157,0.1,0.271,0.23,0.271c0.141,0,0.25-0.106,0.25-0.242c0-0.119-0.053-0.21-0.194-0.369
			h-0.152C104.965,50.656,104.924,50.758,104.924,50.848z"/>
		<path fill="#FFFFFF" d="M103.891,49.42v-0.884h0.172c-0.139-0.19-0.201-0.343-0.201-0.532c0-0.246,0.133-0.562,0.631-0.562h0.821
			v-0.271h0.427v0.871h-1.174c-0.149,0-0.206,0.059-0.206,0.171c0,0.103,0.042,0.216,0.116,0.323h0.836v-0.244h0.427v1.128h-0.427
			v-0.284h-0.998v0.284H103.891z"/>
		<path fill="#FFFFFF" d="M105.742,44.886v0.896h-0.144c0.121,0.174,0.171,0.321,0.171,0.502c0,0.386-0.247,0.677-0.58,0.677
			c-0.358,0-0.621-0.316-0.621-0.762c0-0.165,0.031-0.267,0.084-0.417h-0.104c-0.19,0-0.323,0.143-0.323,0.354
			c0,0.136,0.043,0.229,0.144,0.334l-0.083,0.479c-0.299-0.148-0.437-0.432-0.437-0.894c0-0.608,0.214-0.871,0.707-0.871h0.758
			v-0.299H105.742z M104.924,46.124c0,0.157,0.1,0.271,0.23,0.271c0.141,0,0.25-0.104,0.25-0.242c0-0.117-0.053-0.212-0.194-0.369
			h-0.152C104.965,45.928,104.924,46.035,104.924,46.124z"/>
		<path fill="#FFFFFF" d="M105.742,43.428v1.305h-0.427v-0.347h-0.998V44.7h-0.426v-0.848h0.472v-0.011
			c-0.323-0.105-0.5-0.339-0.5-0.642v-0.09h0.562v0.071c0,0.479,0.319,0.607,0.697,0.607h0.193v-0.36H105.742z"/>
		<path fill="#FFFFFF" d="M103.891,42.82v-0.871h1.424v-0.27h0.427v1.141h-0.427v-0.273h-0.998v0.273H103.891z M103.364,41.921
			c0.179,0,0.323,0.144,0.323,0.322c0,0.181-0.144,0.321-0.323,0.321c-0.182,0-0.321-0.141-0.321-0.321
			C103.043,42.065,103.182,41.921,103.364,41.921z"/>
		<path fill="#FFFFFF" d="M105.785,40.482c0,0.55-0.354,0.971-0.971,0.971c-0.652,0-0.965-0.468-0.965-0.971
			c0-0.538,0.345-0.972,0.965-0.972C105.397,39.51,105.785,39.904,105.785,40.482z M104.306,40.482c0,0.236,0.187,0.364,0.52,0.364
			c0.316,0,0.502-0.138,0.502-0.364c0-0.233-0.186-0.366-0.514-0.366C104.493,40.116,104.306,40.249,104.306,40.482z"/>
	</g>
</g>
<g>
	<path fill="#FFFFFF" d="M117.383,91.506h0.123l4.605-28.316h9.52v39.88h-6.472v-28.6h-0.124l-4.604,28.6h-6.473l-4.976-28.199
		h-0.125v28.199h-5.973V63.19h9.52L117.383,91.506z"/>
	<path fill="#FFFFFF" d="M158.762,103.07h-6.909l-1.182-7.234h-8.397l-1.182,7.234h-6.286l6.97-39.88h10.019L158.762,103.07z
		 M143.143,90.426h6.598l-3.236-20.17h-0.126L143.143,90.426z"/>
	<path fill="#FFFFFF" d="M170.896,87.178l-2.115,3.646v12.246h-6.844V63.19h6.844v17.263h0.123l8.837-17.263h6.844l-9.52,17.779
		l9.52,22.102h-7.029L170.896,87.178z"/>
	<path fill="#FFFFFF" d="M187.699,63.19h6.845v39.88h-6.845V63.19z"/>
	<path fill="#FFFFFF" d="M205.742,74.188h-0.125v28.883h-6.16V63.19h8.586l6.908,23.873h0.124V63.19h6.098v39.88h-7.031
		L205.742,74.188z"/>
	<path fill="#FFFFFF" d="M236.358,80.854h9.583V93.5c0,6.383-3.484,10.027-10.204,10.027c-6.723,0-10.207-3.645-10.207-10.027
		V72.762c0-6.379,3.484-10.026,10.207-10.026c6.72,0,10.204,3.646,10.204,10.026v3.875h-6.473v-4.275
		c0-2.847-1.368-3.927-3.546-3.927s-3.547,1.08-3.547,3.927v21.537c0,2.85,1.369,3.873,3.547,3.873s3.546-1.023,3.546-3.873v-7.35
		h-3.11V80.854z"/>
	<path fill="#FFFFFF" d="M259.445,72.762c0-6.379,3.672-10.026,10.392-10.026s10.393,3.646,10.393,10.026V93.5
		c0,6.383-3.673,10.027-10.393,10.027s-10.392-3.645-10.392-10.027V72.762z M266.291,93.898c0,2.85,1.37,3.932,3.546,3.932
		c2.179,0,3.547-1.082,3.547-3.932V72.361c0-2.847-1.368-3.927-3.547-3.927c-2.176,0-3.546,1.08-3.546,3.927V93.898z"/>
	<path fill="#FFFFFF" d="M291.494,80.908h8.833v5.697h-8.833v16.465h-6.846V63.19h18.106v5.698h-11.261V80.908z"/>
</g>
</svg>
