<?xml version="1.0" encoding="utf-8"?>
<!-- Generator: Adobe Illustrator 16.0.0, SVG Export Plug-In . SVG Version: 6.00 Build 0)  -->
<!DOCTYPE svg PUBLIC "-//W3C//DTD SVG 1.1//EN" "http://www.w3.org/Graphics/SVG/1.1/DTD/svg11.dtd">
<svg version="1.1" id="Layer_1" xmlns="http://www.w3.org/2000/svg" xmlns:xlink="http://www.w3.org/1999/xlink" x="0px" y="0px"
	 width="410px" height="145px" viewBox="0 0 410 145" enable-background="new 0 0 410 145" xml:space="preserve">
<g>
	<path fill="#FFFFFF" d="M45.313,79.598h3.101V62.186h-3.101v-4.458H68.46v8.336h-5.001v-3.878h-8.183v6.048h6.591v4.46h-6.591
		v6.904h8.183v-3.917h5.001v8.376H45.313V79.598z"/>
	<path fill="#FFFFFF" d="M70.262,77.736h4.267c0.039,0.852,0.311,1.396,1.162,2.055c0.737,0.542,1.706,0.776,2.91,0.776
		c1.784,0,2.985-0.699,2.985-1.785c0-2.676-6.94-0.892-10.663-4.614c-0.775-0.775-1.358-1.978-1.358-3.335
		c0-3.139,2.832-5.391,6.786-5.391c1.669,0,3.219,0.312,4.615,0.892v-0.62h4.188v5.313h-4.188c-0.349-1.28-1.668-1.902-3.992-1.902
		c-1.552,0-2.522,0.584-2.522,1.399c0,2.561,11.942,0.114,11.942,7.717c0,3.567-2.483,6.164-7.213,6.164
		c-2.638,0-3.8-0.465-4.652-1.277v0.93h-4.267V77.736z"/>
	<path fill="#FFFFFF" d="M86.455,65.714h2.329v-2.869l5.93-4.188v7.056h3.756v4.229h-3.756v7.948c0,1.589,0.272,1.9,1.514,1.9
		c0.62,0,0.97-0.077,1.781-0.351v3.957c-1.47,0.618-2.946,0.93-4.38,0.93c-2.325,0-4.845-1.127-4.845-4.383V69.942h-2.329V65.714z"
		/>
	<path fill="#FFFFFF" d="M98.421,65.714h8.84v14.114h2.446v4.229H98.652v-4.229h2.676v-9.886h-2.907V65.714z"/>
	<path fill="#FFFFFF" d="M110.265,79.828h2.829V61.954h-2.829v-4.226h8.759v22.101h2.636v4.229h-11.396V79.828z"/>
	<path fill="#FFFFFF" d="M131.61,84.481c-5.43,0-9.619-3.526-9.619-9.616c0-6.437,4.654-9.578,9.619-9.578
		c5.348,0,9.653,3.414,9.653,9.578C141.263,80.644,137.346,84.481,131.61,84.481z M131.61,69.824c-2.328,0-3.608,1.863-3.608,5.158
		c0,3.103,1.358,4.963,3.608,4.963c2.326,0,3.644-1.86,3.644-5.079C135.254,71.687,133.937,69.824,131.61,69.824z"/>
	<path fill="#FFFFFF" d="M140.978,79.598h3.924V62.186h-3.924v-4.458H154.5c4.682,0,7.921,0.89,10.55,3.565
		c2.588,2.638,3.695,6.049,3.695,9.657c0,6.826-4.152,13.107-12.379,13.107h-15.389V79.598z M154.196,79.598
		c5.14,0,7.541-3.375,7.541-8.609c0-5.662-2.742-8.803-7.771-8.803h-2.321v17.412H154.196z"/>
	<path fill="#FFFFFF" d="M170.222,79.598h1.613V62.186h-3.684v-4.458h23.083v8.104h-4.937v-3.646h-7.744v6.09h5.579v4.457h-5.579
		v6.865h1.647v4.459h-9.979V79.598z"/>
	<path fill="#FFFFFF" d="M107.616,60.857c0,1.784-1.435,3.219-3.219,3.219c-1.781,0-3.179-1.435-3.179-3.219
		c0-1.783,1.397-3.179,3.179-3.179C106.181,57.678,107.616,59.074,107.616,60.857z"/>
	<g>
		<path fill="#FFFFFF" d="M42.366,83.981v-0.58c0.37,0.01,0.622-0.229,0.622-0.524c0-0.209-0.161-0.38-0.368-0.38
			c-0.625,0-0.54,1.52-1.615,1.52c-0.666,0-0.932-0.5-0.932-0.924c0-0.266,0.106-0.484,0.317-0.627v-0.009h-0.283v-0.576h1.039
			v0.576c-0.312,0.046-0.503,0.232-0.503,0.495c0,0.195,0.118,0.338,0.278,0.338c0.555,0,0.43-1.579,1.638-1.579
			c0.819,0,1.02,0.632,1.02,0.994c0,0.302-0.111,0.534-0.332,0.686v0.011h0.288v0.58H42.366z"/>
		<path fill="#FFFFFF" d="M43.004,78.818c0.384,0.247,0.586,0.652,0.586,1.172c0,0.828-0.466,1.345-1.208,1.345
			c-0.747,0-1.291-0.538-1.291-1.285c0-0.716,0.549-1.293,1.406-1.231v1.748c0.274-0.008,0.597-0.152,0.597-0.588
			c0-0.2-0.065-0.332-0.277-0.555L43.004,78.818z M42.074,79.571c-0.302,0.04-0.482,0.227-0.482,0.504s0.155,0.443,0.482,0.491
			V79.571z"/>
		<path fill="#FFFFFF" d="M41.146,78.535V77.32h0.198c-0.162-0.276-0.233-0.509-0.233-0.757c0-0.317,0.116-0.581,0.329-0.73
			c-0.232-0.345-0.329-0.612-0.329-0.944c0-0.434,0.181-0.817,0.789-0.817h1.083v-0.476h0.551v1.247h-1.388
			c-0.263,0-0.384,0.096-0.384,0.312c0,0.166,0.056,0.342,0.16,0.542h1.061v-0.431h0.551v1.202h-1.388
			c-0.273,0-0.384,0.09-0.384,0.305c0,0.174,0.045,0.319,0.16,0.547h1.061v-0.428h0.551v1.643h-0.551v-0.443h-1.286v0.443H41.146z"
			/>
		<path fill="#FFFFFF" d="M43.534,70.76v1.155h-0.187c0.155,0.222,0.222,0.416,0.222,0.646c0,0.501-0.316,0.874-0.748,0.874
			c-0.464,0-0.802-0.409-0.802-0.981c0-0.215,0.04-0.346,0.107-0.539h-0.132c-0.248,0-0.419,0.182-0.419,0.455
			c0,0.177,0.056,0.297,0.187,0.434l-0.107,0.614c-0.386-0.189-0.563-0.556-0.563-1.157c0-0.779,0.276-1.118,0.912-1.118h0.979
			V70.76H43.534z M42.479,72.354c0,0.202,0.126,0.351,0.297,0.351c0.182,0,0.319-0.137,0.319-0.314c0-0.152-0.065-0.271-0.248-0.475
			h-0.196C42.531,72.104,42.479,72.239,42.479,72.354z"/>
		<path fill="#FFFFFF" d="M41.146,70.512v-1.14h0.222c-0.181-0.248-0.257-0.444-0.257-0.687c0-0.316,0.17-0.726,0.812-0.726h1.061
			v-0.348h0.551v1.121H42.02c-0.192,0-0.266,0.079-0.266,0.222c0,0.131,0.054,0.277,0.153,0.417h1.076v-0.318h0.551v1.458h-0.551
			v-0.368h-1.286v0.368H41.146z"/>
		<path fill="#FFFFFF" d="M43.534,64.665v1.156h-0.187c0.155,0.222,0.222,0.414,0.222,0.646c0,0.499-0.316,0.874-0.748,0.874
			c-0.464,0-0.802-0.411-0.802-0.981c0-0.217,0.04-0.347,0.107-0.539h-0.132c-0.248,0-0.419,0.182-0.419,0.454
			c0,0.177,0.056,0.298,0.187,0.434l-0.107,0.616c-0.386-0.192-0.563-0.556-0.563-1.154c0-0.784,0.276-1.122,0.912-1.122h0.979
			v-0.383H43.534z M42.479,66.26c0,0.202,0.126,0.348,0.297,0.348c0.182,0,0.319-0.137,0.319-0.313c0-0.152-0.065-0.271-0.248-0.474
			h-0.196C42.531,66.008,42.479,66.143,42.479,66.26z"/>
		<path fill="#FFFFFF" d="M43.534,62.783v1.681h-0.551v-0.445h-1.286v0.404h-0.551v-1.095h0.608v-0.009
			c-0.417-0.141-0.643-0.44-0.643-0.833v-0.114h0.722v0.092c0,0.616,0.414,0.783,0.899,0.783h0.251v-0.465H43.534z"/>
		<path fill="#FFFFFF" d="M41.146,61.996v-1.121h1.837v-0.348h0.551v1.468h-0.551v-0.349h-1.286v0.349H41.146z M40.466,60.835
			c0.232,0,0.417,0.187,0.417,0.419c0,0.233-0.186,0.414-0.417,0.414c-0.234,0-0.414-0.181-0.414-0.414
			C40.052,61.022,40.232,60.835,40.466,60.835z"/>
		<path fill="#FFFFFF" d="M43.59,58.983c0,0.708-0.46,1.252-1.252,1.252c-0.84,0-1.247-0.604-1.247-1.252
			c0-0.695,0.444-1.255,1.247-1.255C43.09,57.728,43.59,58.236,43.59,58.983z M41.682,58.983c0,0.304,0.241,0.47,0.671,0.47
			c0.405,0,0.646-0.178,0.646-0.47c0-0.301-0.241-0.474-0.66-0.474C41.922,58.509,41.682,58.682,41.682,58.983z"/>
	</g>
	<line fill="none" stroke="#FFFFFF" stroke-miterlimit="10" x1="41" y1="91.5" x2="93" y2="91.5"/>
	<line fill="none" stroke="#FFFFFF" stroke-miterlimit="10" x1="138" y1="91.5" x2="190" y2="91.5"/>
	<g>
		<path fill="#FFFFFF" d="M95.4,93.003v-4.577h0.678l2.625,3.593v-3.593h0.634v4.577h-0.679l-2.625-3.596v3.596H95.4z"/>
		<path fill="#FFFFFF" d="M107.447,93.003v-4.577h3.614v0.541h-2.952v1.401h2.765v0.536h-2.765v1.559h3.068v0.54H107.447z"/>
		<path fill="#FFFFFF" d="M119.945,93.003l-1.326-4.577h0.679l0.761,3.001c0.081,0.314,0.152,0.626,0.21,0.937
			c0.127-0.49,0.202-0.771,0.226-0.847l0.951-3.091h0.798l0.716,2.316c0.179,0.575,0.309,1.115,0.389,1.621
			c0.064-0.289,0.147-0.622,0.25-0.996l0.784-2.941h0.665l-1.372,4.577h-0.637l-1.054-3.487c-0.088-0.29-0.141-0.47-0.157-0.536
			c-0.053,0.21-0.101,0.389-0.147,0.536l-1.06,3.487H119.945z"/>
		<path fill="#FFFFFF" d="M132.422,91.533l0.623-0.05c0.03,0.228,0.099,0.416,0.207,0.563c0.107,0.146,0.276,0.264,0.502,0.354
			c0.227,0.092,0.482,0.136,0.767,0.136c0.253,0,0.475-0.034,0.668-0.103c0.193-0.069,0.338-0.162,0.431-0.282
			c0.095-0.12,0.142-0.251,0.142-0.393c0-0.144-0.046-0.269-0.136-0.375c-0.091-0.107-0.242-0.197-0.45-0.271
			c-0.134-0.048-0.431-0.122-0.89-0.224c-0.46-0.101-0.781-0.195-0.965-0.285c-0.239-0.115-0.416-0.257-0.533-0.427
			c-0.117-0.169-0.176-0.358-0.176-0.569c0-0.23,0.071-0.446,0.214-0.647c0.143-0.2,0.353-0.354,0.627-0.457
			c0.275-0.104,0.581-0.156,0.917-0.156c0.37,0,0.697,0.055,0.98,0.163c0.283,0.11,0.501,0.271,0.653,0.483
			c0.152,0.212,0.234,0.452,0.246,0.72l-0.635,0.045c-0.034-0.289-0.149-0.509-0.345-0.655c-0.197-0.148-0.487-0.222-0.872-0.222
			c-0.4,0-0.692,0.067-0.875,0.2c-0.182,0.135-0.274,0.297-0.274,0.486c0,0.165,0.065,0.299,0.195,0.405
			c0.127,0.105,0.46,0.216,0.997,0.326c0.537,0.111,0.906,0.209,1.107,0.292c0.291,0.123,0.505,0.278,0.645,0.466
			c0.138,0.188,0.207,0.405,0.207,0.651c0,0.244-0.076,0.474-0.228,0.689c-0.152,0.214-0.372,0.383-0.656,0.502
			c-0.286,0.12-0.607,0.18-0.964,0.18c-0.453,0-0.832-0.061-1.137-0.182c-0.306-0.12-0.546-0.302-0.719-0.545
			C132.521,92.112,132.431,91.838,132.422,91.533z"/>
	</g>
</g>
</svg>
