<?xml version="1.0" encoding="utf-8"?>
<!-- Generator: Adobe Illustrator 16.0.0, SVG Export Plug-In . SVG Version: 6.00 Build 0)  -->
<!DOCTYPE svg PUBLIC "-//W3C//DTD SVG 1.1//EN" "http://www.w3.org/Graphics/SVG/1.1/DTD/svg11.dtd">
<svg version="1.1" id="Layer_1" xmlns="http://www.w3.org/2000/svg" xmlns:xlink="http://www.w3.org/1999/xlink" x="0px" y="0px"
	 width="410px" height="145px" viewBox="0 0 410 145" enable-background="new 0 0 410 145" xml:space="preserve">
<g>
	<path fill="#FFFFFF" d="M130.742,78.414h-2.121l-0.685,11.054H125l0.685-11.054h-1.599l0.261-4.311h1.598l0.62-10.113h-1.631
		l0.261-4.312h1.631l0.555-8.897h2.936l-0.554,8.897h2.12l0.555-8.897h2.936l-0.554,8.897h1.664l-0.261,4.312h-1.664l-0.62,10.113
		h1.664l-0.261,4.311h-1.664l-0.685,11.054h-2.936L130.742,78.414z M128.883,74.104h2.12l0.62-10.113h-2.121L128.883,74.104z"/>
	<path fill="#FFFFFF" d="M149.893,89.468h-3.621l-0.62-7.019h-4.404l-0.62,7.019h-3.295l3.654-38.687h5.252L149.893,89.468z
		 M141.704,77.198h3.458l-1.696-19.564H143.4L141.704,77.198z"/>
	<path fill="#FFFFFF" d="M160.573,63.931v1.185c0,3.411-0.615,5.544-1.986,6.633v0.095c1.65,1.09,2.293,3.554,2.293,7.06v2.7
		c0,5.117-1.594,7.865-4.671,7.865h-4.839V56.303h4.643C159.202,56.303,160.573,58.814,160.573,63.931z M154.447,61.041v8.765h1.203
		c1.147,0,1.846-0.853,1.846-3.506v-1.848c0-2.369-0.476-3.411-1.566-3.411H154.447z M154.447,74.544v10.186h1.762
		c1.035,0,1.594-0.805,1.594-3.269V78.57c0-3.079-0.587-4.026-1.986-4.026H154.447z"/>
	<path fill="#FFFFFF" d="M169.157,89.468c-0.168-0.853-0.28-1.374-0.28-4.074v-5.212c0-3.08-0.615-4.217-2.014-4.217h-1.063v13.503
		h-3.077V56.303h4.643c3.188,0,4.559,2.512,4.559,7.628v2.606c0,3.411-0.644,5.591-2.014,6.68v0.095
		c1.538,1.09,2.042,3.554,2.042,7.012v5.117c0,1.611,0.028,2.796,0.335,4.027H169.157z M165.801,61.041v10.187h1.203
		c1.147,0,1.846-0.854,1.846-3.506v-3.27c0-2.369-0.476-3.411-1.566-3.411H165.801z"/>
	<path fill="#FFFFFF" d="M183.922,89.468h-3.104l-0.531-6.017h-3.776l-0.531,6.017h-2.825l3.133-33.165h4.503L183.922,89.468z
		 M176.902,78.95h2.965l-1.455-16.772h-0.056L176.902,78.95z"/>
	<path fill="#FFFFFF" d="M193.877,56.303v4.644l-5.846,23.783h5.846v4.738h-9.006v-4.644l5.846-23.783h-5.566v-4.738H193.877z"/>
	<path fill="#FFFFFF" d="M205.65,89.468h-3.104l-0.531-6.017h-3.776l-0.532,6.017h-2.825l3.133-33.165h4.503L205.65,89.468z
		 M198.63,78.95h2.965l-1.455-16.772h-0.056L198.63,78.95z"/>
	<path fill="#FFFFFF" d="M219.887,78.248h0.065l2.414-27.467h4.991v38.687h-3.393V61.724h-0.065l-2.414,27.744h-3.393l-2.61-27.357
		h-0.065v27.357h-3.131V50.781h4.991L219.887,78.248z"/>
	<path fill="#FFFFFF" d="M232.858,70.279h4.224v4.738h-4.224v9.712h5.314v4.738h-8.391V56.303h8.391v4.738h-5.314V70.279z
		 M237.25,49.291l-2.854,5.259h-2.069l1.901-5.259H237.25z"/>
	<path fill="#FFFFFF" d="M250.338,56.303l-3.217,16.109l3.44,17.056h-3.244l-2.489-13.124h-0.057l-2.517,13.124h-2.881l3.439-17.056
		l-3.216-16.109h3.188l2.293,12.224h0.057l2.349-12.224H250.338z"/>
	<path fill="#FFFFFF" d="M252.098,56.303h3.076v33.165h-3.076V56.303z"/>
	<path fill="#FFFFFF" d="M266.332,77.102v4.406c0,5.307-1.566,8.339-4.587,8.339s-4.587-3.032-4.587-8.339V64.263
		c0-5.307,1.566-8.339,4.587-8.339s4.587,3.032,4.587,8.339v3.222h-2.909v-3.554c0-2.368-0.615-3.269-1.594-3.269
		c-0.979,0-1.595,0.9-1.595,3.269V81.84c0,2.369,0.615,3.222,1.595,3.222c0.979,0,1.594-0.853,1.594-3.222v-4.738H266.332z"/>
	<path fill="#FFFFFF" d="M267.952,64.263c0-5.307,1.65-8.339,4.671-8.339s4.671,3.032,4.671,8.339v17.245
		c0,5.307-1.65,8.339-4.671,8.339s-4.671-3.032-4.671-8.339V64.263z M271.028,81.84c0,2.369,0.615,3.27,1.595,3.27
		c0.979,0,1.594-0.9,1.594-3.27V63.931c0-2.368-0.615-3.269-1.594-3.269c-0.979,0-1.595,0.9-1.595,3.269V81.84z"/>
</g>
</svg>
