<?xml version="1.0" encoding="utf-8"?>
<!-- Generator: Adobe Illustrator 16.0.0, SVG Export Plug-In . SVG Version: 6.00 Build 0)  -->
<!DOCTYPE svg PUBLIC "-//W3C//DTD SVG 1.1//EN" "http://www.w3.org/Graphics/SVG/1.1/DTD/svg11.dtd">
<svg version="1.1" id="Layer_1" xmlns="http://www.w3.org/2000/svg" xmlns:xlink="http://www.w3.org/1999/xlink" x="0px" y="0px"
	 width="35px" height="35px" viewBox="0 0 35 35" enable-background="new 0 0 35 35" xml:space="preserve">
<path fill="#FFFFFF" d="M11.254,13.744l2.813,0.014l0.011-2.55c0.005-1.126,0.043-2.861,0.925-3.931
	c0.928-1.134,2.196-1.901,4.375-1.892c3.548,0.016,5.041,0.496,5.041,0.496l-0.721,3.885c0,0-1.171-0.32-2.266-0.326
	c-1.094-0.006-2.075,0.355-2.08,1.376l-0.014,2.966l4.484,0.021l-0.328,3.796l-4.173-0.019l-0.062,13.192l-5.273-0.023l0.061-13.193
	l-2.812-0.013L11.254,13.744z"/>
</svg>
