<?xml version="1.0" encoding="utf-8"?>
<!-- Generator: Adobe Illustrator 16.0.0, SVG Export Plug-In . SVG Version: 6.00 Build 0)  -->
<!DOCTYPE svg PUBLIC "-//W3C//DTD SVG 1.1//EN" "http://www.w3.org/Graphics/SVG/1.1/DTD/svg11.dtd">
<svg version="1.1" id="Layer_1" xmlns="http://www.w3.org/2000/svg" xmlns:xlink="http://www.w3.org/1999/xlink" x="0px" y="0px"
	 width="35px" height="35px" viewBox="0 0 35 35" enable-background="new 0 0 35 35" xml:space="preserve">
<path fill="#FFFFFF" d="M33.644,8.28c-1.104,0.483-2.291,0.809-3.535,0.951c1.273-0.756,2.254-1.955,2.717-3.388
	c-1.187,0.699-2.503,1.204-3.908,1.474c-1.113-1.2-2.707-1.954-4.476-1.962c-3.394-0.017-6.157,2.724-6.174,6.116
	c-0.002,0.483,0.052,0.952,0.152,1.401c-5.104-0.279-9.622-2.746-12.637-6.48C5.252,7.301,4.944,8.354,4.938,9.479
	c-0.01,2.132,1.065,4.02,2.709,5.127c-1.005-0.035-1.952-0.316-2.779-0.78l-0.001,0.076c-0.013,2.977,2.095,5.472,4.901,6.05
	c-0.515,0.136-1.058,0.212-1.621,0.208c-0.395,0-0.779-0.044-1.152-0.116c0.769,2.444,3.03,4.231,5.719,4.294
	c-2.108,1.639-4.764,2.608-7.644,2.595c-0.495-0.001-0.984-0.033-1.464-0.093c2.71,1.757,5.934,2.788,9.407,2.804
	c11.305,0.053,17.527-9.28,17.566-17.401c0-0.266-0.008-0.531-0.014-0.798C31.765,10.587,32.813,9.509,33.644,8.28z"/>
</svg>
