<?xml version="1.0" encoding="utf-8"?>
<!-- Generator: Adobe Illustrator 16.0.0, SVG Export Plug-In . SVG Version: 6.00 Build 0)  -->
<!DOCTYPE svg PUBLIC "-//W3C//DTD SVG 1.1//EN" "http://www.w3.org/Graphics/SVG/1.1/DTD/svg11.dtd">
<svg version="1.1" id="Layer_1" xmlns="http://www.w3.org/2000/svg" xmlns:xlink="http://www.w3.org/1999/xlink" x="0px" y="0px"
	 width="35px" height="35px" viewBox="0 0 35 35" enable-background="new 0 0 35 35" xml:space="preserve">
<path fill="#FFFFFF" d="M8.269,5.539l18.58,0.086c1.764,0.008,3.2,1.457,3.193,3.223l-0.086,18.579
	c-0.01,1.766-1.459,3.201-3.223,3.193l-18.58-0.086c-1.766-0.01-3.204-1.457-3.195-3.221L5.042,8.731
	C5.051,6.966,6.503,5.529,8.269,5.539z M23.257,8.383c-0.619-0.004-1.129,0.503-1.131,1.121l-0.014,2.693
	c-0.002,0.619,0.502,1.128,1.122,1.131l2.825,0.013c0.618,0.003,1.126-0.501,1.128-1.121l0.014-2.691
	c0.002-0.619-0.502-1.131-1.118-1.133L23.257,8.383z M27.181,16.195l-2.199-0.01c0.207,0.682,0.314,1.401,0.311,2.147
	c-0.018,4.156-3.512,7.512-7.804,7.492c-4.29-0.02-7.755-3.408-7.735-7.562c0.002-0.749,0.121-1.465,0.331-2.145l-2.296-0.012
	L7.739,26.666c-0.002,0.547,0.443,0.994,0.987,0.996l17.409,0.08c0.546,0.002,0.994-0.439,0.997-0.986L27.181,16.195z
	 M17.546,13.161c-2.771-0.014-5.03,2.153-5.043,4.841c-0.012,2.686,2.227,4.875,4.998,4.887c2.773,0.014,5.029-2.154,5.043-4.84
	C22.556,15.361,20.318,13.174,17.546,13.161z"/>
</svg>
