<?xml version="1.0" encoding="utf-8"?>
<!-- Generator: Adobe Illustrator 16.0.0, SVG Export Plug-In . SVG Version: 6.00 Build 0)  -->
<!DOCTYPE svg PUBLIC "-//W3C//DTD SVG 1.1//EN" "http://www.w3.org/Graphics/SVG/1.1/DTD/svg11.dtd">
<svg version="1.1" id="Layer_1" xmlns="http://www.w3.org/2000/svg" xmlns:xlink="http://www.w3.org/1999/xlink" x="0px" y="0px"
	 width="35px" height="35px" viewBox="0 0 35 35" enable-background="new 0 0 35 35" xml:space="preserve">
<g>
	<path fill="#FFFFFF" d="M15.426,5.629l-1.41-0.007L13.05,9.275l-0.974-3.66L10.61,5.607c0.288,0.864,0.589,1.732,0.879,2.598
		c0.441,1.301,0.718,2.281,0.841,2.95l-0.019,3.771l1.395,0.007l0.017-3.771L15.426,5.629z M19.123,12.709l0.009-2.43
		c0.005-0.742-0.12-1.284-0.384-1.636c-0.346-0.476-0.833-0.715-1.463-0.719c-0.625-0.003-1.117,0.232-1.467,0.705
		c-0.271,0.35-0.396,0.89-0.4,1.632l-0.012,2.431c-0.004,0.737,0.119,1.285,0.386,1.635c0.344,0.474,0.835,0.715,1.462,0.717
		c0.628,0.004,1.118-0.232,1.468-0.703C18.987,13.994,19.118,13.448,19.123,12.709z M17.863,12.94
		c-0.004,0.644-0.2,0.962-0.605,0.961c-0.406-0.002-0.6-0.323-0.596-0.965l0.013-2.919c0.004-0.643,0.198-0.962,0.606-0.96
		c0.404,0.002,0.598,0.323,0.596,0.965L17.863,12.94z M23.759,14.977l0.032-6.938l-1.256-0.006l-0.023,5.304
		c-0.283,0.393-0.548,0.584-0.797,0.584c-0.17-0.001-0.269-0.101-0.295-0.295c-0.016-0.041-0.014-0.194-0.014-0.488l0.023-5.11
		l-1.252-0.006l-0.027,5.487c0,0.489,0.04,0.822,0.108,1.031c0.123,0.354,0.401,0.52,0.807,0.521
		c0.458,0.003,0.937-0.274,1.44-0.848l-0.002,0.758L23.759,14.977z"/>
	<g>
		<path fill="#FFFFFF" d="M19.785,22.006c-0.203,0-0.413,0.096-0.621,0.299l-0.02,4.186c0.205,0.209,0.414,0.307,0.617,0.307
			c0.36,0.002,0.545-0.301,0.548-0.922l0.014-2.93C20.326,22.326,20.144,22.006,19.785,22.006z"/>
		<path fill="#FFFFFF" d="M24.404,22.027c-0.418-0.004-0.627,0.314-0.63,0.949l-0.002,0.635l1.241,0.006l0.004-0.635
			C25.02,22.348,24.814,22.027,24.404,22.027z"/>
		<path fill="#FFFFFF" d="M27.459,18.549c-0.244-1.094-1.137-1.907-2.215-2.032c-2.551-0.298-5.135-0.311-7.707-0.322
			c-2.573-0.012-5.156-0.023-7.711,0.252c-1.08,0.114-1.979,0.918-2.234,2.01c-0.364,1.561-0.377,3.26-0.385,4.867
			C7.2,24.93,7.192,26.631,7.542,28.191c0.247,1.096,1.14,1.908,2.217,2.033c2.55,0.297,5.134,0.309,7.708,0.32
			c2.57,0.014,5.156,0.023,7.709-0.25c1.078-0.115,1.979-0.918,2.234-2.012c0.367-1.557,0.377-3.26,0.384-4.865
			C27.801,21.811,27.811,20.111,27.459,18.549z M13.096,19.887l-1.492-0.006l-0.037,7.916l-1.382-0.006l0.036-7.918l-1.463-0.006
			l0.005-1.299l4.339,0.021L13.096,19.887z M16.816,27.82l-1.244-0.004l0.003-0.75c-0.495,0.564-0.968,0.84-1.424,0.838
			c-0.4-0.002-0.678-0.166-0.8-0.514c-0.068-0.211-0.107-0.537-0.105-1.021l0.024-5.43l1.245,0.004L14.492,26
			c-0.002,0.291-0.003,0.441,0.008,0.484c0.029,0.191,0.124,0.289,0.289,0.289c0.25,0.004,0.514-0.188,0.791-0.576l0.023-5.248
			l1.244,0.006L16.816,27.82z M21.553,25.783c-0.002,0.635-0.048,1.092-0.133,1.383c-0.168,0.51-0.5,0.77-0.998,0.768
			c-0.439-0.002-0.867-0.25-1.28-0.768l-0.003,0.666l-1.242-0.006l0.041-9.215l1.244,0.006l-0.015,3.01
			c0.403-0.492,0.833-0.74,1.287-0.738c0.499,0.002,0.829,0.264,0.992,0.777c0.081,0.277,0.122,0.734,0.12,1.383L21.553,25.783z
			 M26.256,24.658l-2.489-0.012l-0.004,1.217c-0.005,0.639,0.202,0.953,0.629,0.955c0.306,0.002,0.487-0.164,0.562-0.496
			c0.01-0.066,0.025-0.342,0.027-0.84l1.271,0.004v0.182c-0.003,0.4-0.021,0.676-0.032,0.803c-0.044,0.273-0.142,0.523-0.293,0.742
			c-0.35,0.498-0.86,0.74-1.509,0.738c-0.652-0.004-1.146-0.24-1.503-0.711c-0.263-0.344-0.396-0.887-0.394-1.615l0.011-2.404
			c0.004-0.734,0.127-1.271,0.394-1.617c0.359-0.469,0.859-0.699,1.494-0.697c0.623,0.004,1.117,0.238,1.463,0.711
			c0.258,0.348,0.383,0.885,0.379,1.619L26.256,24.658z"/>
	</g>
</g>
</svg>
